<?xml version="1.0" encoding="UTF-8"?>
<svg width="22px" height="25px" viewBox="0 0 22 25" version="1.1" xmlns="http://www.w3.org/2000/svg" xmlns:xlink="http://www.w3.org/1999/xlink">
    <title>Shape@3x</title>
    <g id="Default-Views" stroke="none" stroke-width="1" fill="none" fill-rule="evenodd">
        <g id="Grades" transform="translate(-1310.000000, -24.000000)" fill="#FFFFFF" fill-rule="nonzero">
            <g id="Toolbar-Copy" transform="translate(-1.208783, 0.474901)">
                <g id="calendar-regular" transform="translate(1311.208783, 23.525099)">
                    <path d="M19.6428571,3.125 L17.2857143,3.125 L17.2857143,0.5859375 C17.2857143,0.263671875 17.0205357,0 16.6964286,0 L14.7321429,0 C14.4080357,0 14.1428571,0.263671875 14.1428571,0.5859375 L14.1428571,3.125 L7.85714286,3.125 L7.85714286,0.5859375 C7.85714286,0.263671875 7.59196429,0 7.26785714,0 L5.30357143,0 C4.97946429,0 4.71428571,0.263671875 4.71428571,0.5859375 L4.71428571,3.125 L2.35714286,3.125 C1.05580357,3.125 0,4.17480469 0,5.46875 L0,22.65625 C0,23.9501953 1.05580357,25 2.35714286,25 L19.6428571,25 C20.9441964,25 22,23.9501953 22,22.65625 L22,5.46875 C22,4.17480469 20.9441964,3.125 19.6428571,3.125 Z M19.3482143,22.65625 L2.65178571,22.65625 C2.48973214,22.65625 2.35714286,22.5244141 2.35714286,22.3632812 L2.35714286,7.8125 L19.6428571,7.8125 L19.6428571,22.3632812 C19.6428571,22.5244141 19.5102679,22.65625 19.3482143,22.65625 Z" id="Shape"></path>
                </g>
            </g>
        </g>
    </g>
</svg>