<?xml version="1.0" encoding="UTF-8"?>
<svg width="18px" height="18px" viewBox="0 0 18 18" version="1.1" xmlns="http://www.w3.org/2000/svg" xmlns:xlink="http://www.w3.org/1999/xlink">
    <title>Shape@3x</title>
    <g id="Default-Views" stroke="none" stroke-width="1" fill="none" fill-rule="evenodd">
        <g id="Courses" transform="translate(-1372.000000, -668.000000)" fill="#92929D">
            <g id="Download" transform="translate(1363.000000, 659.000000)">
                <g id="Component/icon/ic_Saved" transform="translate(9.000000, 9.000000)">
                    <path d="M9.83333333,14.8046395 L10.1576559,14.5544416 C10.5220603,14.2733228 11.0453603,14.340839 11.3264792,14.7052434 C11.607598,15.0696478 11.5400818,15.5929477 11.1756774,15.8740666 L9.523117,17.1489302 C9.47289016,17.1894882 9.41872133,17.2235205 9.36186937,17.2508647 C9.31731074,17.2733654 9.25751012,17.2954095 9.1949673,17.3104015 C9.11460402,17.3292129 9.03736981,17.3360711 8.96079459,17.3324274 C8.84330543,17.3269861 8.73217021,17.2972154 8.63231133,17.2480378 C8.57758083,17.2211868 8.52539333,17.1881021 8.476883,17.1489302 L6.82432261,15.8740666 C6.45991823,15.5929477 6.39240198,15.0696478 6.67352084,14.7052434 C6.9546397,14.340839 7.47793968,14.2733228 7.84234406,14.5544416 L8.16666667,14.8046395 L8.16666667,6.04758744 C8.16666667,5.58735015 8.53976271,5.21425411 9,5.21425411 C9.46023729,5.21425411 9.83333333,5.58735015 9.83333333,6.04758744 L9.83333333,14.8046395 L9.83333333,14.8046395 Z M9.41666667,0.666666667 C11.5507556,0.666666667 13.3646363,2.13420715 13.8640757,4.14363525 C15.8696482,4.64463188 17.3333333,6.46172789 17.3333333,8.59832959 C17.3333333,10.9438758 15.5690394,12.9056333 13.2584207,13.1616 C12.8009817,13.2122744 12.3890744,12.8825264 12.3384,12.4250874 C12.2877256,11.9676484 12.6174736,11.5557411 13.0749126,11.5050667 C14.5428167,11.3424546 15.6666667,10.092821 15.6666667,8.59832959 C15.6666667,7.09783876 14.5340145,5.84501159 13.0588391,5.68985692 C12.6674407,5.64869077 12.3582,5.33931423 12.3172057,4.94789782 C12.1622314,3.46819195 10.9122619,2.33333333 9.41666667,2.33333333 C7.91976409,2.33333333 6.66909955,3.47012409 6.51576058,4.95142311 C6.46794896,5.4132972 6.05185193,5.74700106 5.59061675,5.69337523 C5.47828737,5.68031518 5.36464192,5.67372373 5.25,5.67372373 C3.63956447,5.67372373 2.33333333,6.98272031 2.33333333,8.59832959 C2.33333333,10.092821 3.45718326,11.3424546 4.92508741,11.5050667 C5.38252645,11.5557411 5.71227435,11.9676484 5.66159998,12.4250874 C5.6109256,12.8825264 5.19901829,13.2122744 4.74157926,13.1616 C2.43096062,12.9056333 0.666666667,10.9438758 0.666666667,8.59832959 C0.666666667,6.1458072 2.5865217,4.14181668 5.00362196,4.0135767 C5.54754638,2.07133946 7.32874475,0.666666667 9.41666667,0.666666667 Z" id="Shape"></path>
                </g>
            </g>
        </g>
    </g>
</svg>