<?xml version="1.0" encoding="UTF-8"?>
<svg width="32px" height="32px" viewBox="0 0 32 32" version="1.1" xmlns="http://www.w3.org/2000/svg" xmlns:xlink="http://www.w3.org/1999/xlink">
    <title>Rounded_Initial_PP_32px@3x</title>
    <g id="Default-Views" stroke="none" stroke-width="1" fill="none" fill-rule="evenodd">
        <g id="Messages" transform="translate(-21.000000, -514.000000)">
            <g id="Sidebar-Left-Copy" transform="translate(0.000000, 73.000000)">
                <g id="Apps" transform="translate(21.000000, 350.000000)">
                    <g id="Rounded_Initial_PP_32px" transform="translate(0.000000, 91.000000)">
                        <rect id="Rectangle" fill="#F0F2FC" x="0" y="0" width="32" height="32" rx="10"></rect>
                        <g id="google-drive" transform="translate(7.000000, 7.000000)" fill-rule="nonzero">
                            <g id="Group" fill="#0BA25E">
                                <polygon id="Path" points="6.15146789 0.0559504505 6.19546789 0.0549504505 6.19946789 0.10395045 6.14346789 0.10595045"></polygon>
                                <path d="M6.06972477,0.157837838 C6.0840367,0.137657658 6.11192661,0.0972972973 6.12623853,0.0771171171 L6.15192661,0.0731531532 C6.17100917,0.301621622 6.23926606,0.521801802 6.2906422,0.744144144 C6.51155963,1.71027027 6.7346789,2.67567568 6.96697248,3.63891892 C7.11926606,4.29945946 7.28917431,4.95675676 7.42862385,5.61981982 C7.54972477,6.03027027 7.6146789,6.45369369 7.73174312,6.86486486 C7.80733945,7.24828829 7.92587156,7.62234234 7.9893578,8.00792793 C7.96366972,8.05009009 7.93798165,8.09261261 7.91192661,8.13477477 C7.90568807,8.1445045 7.89247706,8.16468468 7.88623853,8.17477477 L7.87669725,8.19099099 C7.87522936,8.19387387 7.87192661,8.2 7.87009174,8.20288288 C7.85577982,8.22882883 7.82715596,8.28036036 7.81284404,8.30594595 C7.81027523,8.31063063 7.80477064,8.32 7.80183486,8.32468468 L7.77577982,8.37009009 C7.77247706,8.3754955 7.76623853,8.38594595 7.76330275,8.39135135 L7.73284404,8.4436036 C7.73137615,8.44648649 7.72807339,8.45225225 7.72623853,8.45513514 L7.68844037,8.52 C7.68513761,8.52540541 7.67853211,8.53693694 7.67522936,8.5427027 C7.67155963,8.54882883 7.66422018,8.56072072 7.66055046,8.56684685 L7.62348624,8.62954955 C7.62055046,8.63423423 7.6146789,8.64432432 7.61174312,8.64900901 L7.58899083,8.68684685 C7.5853211,8.69333333 7.57724771,8.70666667 7.57357798,8.71315315 C7.55889908,8.73801802 7.52990826,8.78774775 7.51522936,8.81297297 C7.51266055,8.8172973 7.50715596,8.82630631 7.50458716,8.83099099 L7.48146789,8.86882883 C7.47779817,8.87567568 7.46972477,8.88864865 7.46568807,8.8954955 C7.45211009,8.91891892 7.42422018,8.96540541 7.4106422,8.98882883 C7.40733945,8.99423423 7.40110092,9.00540541 7.39779817,9.01081081 L7.37027523,9.05945946 C7.36770642,9.06378378 7.36256881,9.07279279 7.36,9.07711712 L7.33174312,9.12576577 C7.32880734,9.13081081 7.32293578,9.1409009 7.32,9.14594595 C7.3053211,9.16972973 7.27669725,9.21765766 7.26238532,9.2418018 C7.25908257,9.24720721 7.25247706,9.25837838 7.24917431,9.26414414 L7.22311927,9.31027027 C7.22055046,9.31459459 7.21577982,9.32288288 7.21357798,9.32720721 L7.18348624,9.37837838 C7.18091743,9.38306306 7.17541284,9.39207207 7.17284404,9.3963964 C7.15743119,9.42234234 7.12697248,9.47387387 7.11155963,9.49981982 C7.10899083,9.5045045 7.10311927,9.51387387 7.10018349,9.51855856 L7.07816514,9.55423423 C7.07449541,9.56072072 7.06678899,9.57333333 7.06311927,9.57981982 C7.04917431,9.6036036 7.02165138,9.65081081 7.00770642,9.67459459 C7.00550459,9.67855856 7.00036697,9.68720721 6.99816514,9.69117117 L6.96807339,9.74378378 C6.96587156,9.74774775 6.96146789,9.75531532 6.95926606,9.75927928 L6.92844037,9.81225225 C6.92587156,9.81621622 6.92073394,9.82486486 6.91816514,9.82882883 C6.90385321,9.85261261 6.87486239,9.89945946 6.86055046,9.92324324 C6.85651376,9.92936937 6.84917431,9.94234234 6.84513761,9.94882883 L6.82348624,9.98846847 C6.82055046,9.99351351 6.81504587,10.0036036 6.81247706,10.0082883 L6.7746789,10.0724324 C6.77174312,10.0778378 6.76513761,10.0886486 6.76220183,10.0940541 C6.75889908,10.0990991 6.75302752,10.1095495 6.75009174,10.1145946 C6.68807339,10.2172973 6.63192661,10.3232432 6.56330275,10.421982 C6.17247706,11.0479279 5.81284404,11.6933333 5.43449541,12.3268468 C4.82018349,13.3708108 4.2066055,14.4147748 3.59229358,15.4587387 C3.50018349,15.6212613 3.39522936,15.7769369 3.3159633,15.9466667 C3.31192661,15.9524324 3.30385321,15.963964 3.29981651,15.9697297 C3.15266055,15.7614414 3.03889908,15.5315315 2.90422018,15.3153153 C2.28990826,14.2706306 1.67522936,13.2263063 1.0612844,12.1812613 C0.72,11.5935135 0.36440367,11.012973 0.032293578,10.4198198 C1.34752294,8.19099099 2.65688073,5.9581982 3.96954128,3.72792793 C3.9706422,3.72576577 3.97321101,3.7218018 3.97431193,3.71963964 L4.01027523,3.6590991 C4.01174312,3.65657658 4.0146789,3.65153153 4.01651376,3.64900901 L4.05284404,3.58810811 C4.05614679,3.5827027 4.06275229,3.57117117 4.06642202,3.56576577 C4.07009174,3.55927928 4.07743119,3.54666667 4.08110092,3.54018018 L4.11743119,3.47675676 C4.12,3.47243243 4.12513761,3.46378378 4.12770642,3.45945946 L4.15486239,3.41693694 C4.15963303,3.41009009 4.16917431,3.39603604 4.17394495,3.38882883 C4.18715596,3.36936937 4.21394495,3.33009009 4.22752294,3.31063063 C4.22899083,3.30414414 4.23155963,3.29153153 4.23302752,3.28540541 L4.26495413,3.22522523 C4.26642202,3.2227027 4.2693578,3.21765766 4.27082569,3.21513514 L4.30752294,3.15459459 C4.31119266,3.14882883 4.31853211,3.13657658 4.32220183,3.13045045 C4.32623853,3.1236036 4.33431193,3.10954955 4.3387156,3.10234234 L4.36954128,3.04936937 C4.37284404,3.0436036 4.37944954,3.03243243 4.38275229,3.02702703 L4.40844037,2.9827027 C4.41137615,2.97801802 4.41724771,2.96792793 4.42018349,2.96288288 C4.43449541,2.93873874 4.46311927,2.89045045 4.47779817,2.86630631 C4.48073394,2.86126126 4.4866055,2.85117117 4.48954128,2.84612613 L4.51633028,2.7981982 C4.51853211,2.79459459 4.52293578,2.78666667 4.52513761,2.78306306 L4.56036697,2.72252252 C4.56477064,2.71531532 4.57394495,2.70054054 4.5787156,2.69333333 L4.60256881,2.65801802 C4.60770642,2.65081081 4.61761468,2.63675676 4.62275229,2.62990991 C4.62715596,2.6227027 4.63633028,2.60828829 4.64110092,2.60108108 L4.66091743,2.5636036 C4.66752294,2.54954955 4.68110092,2.52144144 4.68770642,2.50738739 L4.70788991,2.47963964 C4.71155963,2.47459459 4.71853211,2.46486486 4.72220183,2.45981982 C4.73577982,2.44864865 4.76330275,2.42558559 4.77688073,2.41405405 L4.77431193,2.37189189 C4.77651376,2.36684685 4.78165138,2.35675676 4.78422018,2.35171171 L4.81541284,2.29081081 C4.81798165,2.28648649 4.82311927,2.27747748 4.82568807,2.27315315 L4.85321101,2.22918919 C4.85834862,2.22198198 4.86825688,2.20756757 4.8733945,2.20036036 C4.88587156,2.18018018 4.91119266,2.14054054 4.92366972,2.12072072 C4.92733945,2.11351351 4.93394495,2.09945946 4.93761468,2.09225225 L4.95706422,2.05081081 C4.96293578,2.04 4.97541284,2.01801802 4.98165138,2.00684685 L5.00587156,1.97297297 C5.01100917,1.96612613 5.0212844,1.95243243 5.02642202,1.94558559 C5.03082569,1.93837838 5.04,1.92396396 5.04440367,1.91675676 L5.06238532,1.87963964 C5.06642202,1.87135135 5.07486239,1.85441441 5.07889908,1.84612613 L5.11045872,1.78630631 C5.11522936,1.7790991 5.12440367,1.76396396 5.12880734,1.7563964 L5.15302752,1.72108108 C5.15816514,1.71387387 5.16844037,1.70018018 5.17357798,1.69297297 C5.17834862,1.68576577 5.18752294,1.67099099 5.19192661,1.66378378 L5.2106422,1.62630631 C5.21614679,1.61585586 5.22678899,1.59531532 5.23192661,1.58486486 L5.25688073,1.5445045 C5.2612844,1.53765766 5.27009174,1.52396396 5.27486239,1.51711712 C5.28807339,1.49693694 5.31486239,1.45657658 5.32844037,1.43675676 C5.32990826,1.43063063 5.33321101,1.41837838 5.3346789,1.41225225 L5.3666055,1.35243243 C5.36770642,1.34990991 5.3706422,1.34522523 5.37211009,1.3427027 L5.40880734,1.28108108 C5.41247706,1.27495495 5.41944954,1.26306306 5.42311927,1.25693694 C5.42678899,1.25117117 5.43376147,1.23891892 5.43743119,1.23315315 L5.47412844,1.17009009 C5.47559633,1.16756757 5.47853211,1.16252252 5.48,1.15963964 L5.51449541,1.1009009 C5.51633028,1.09837838 5.51963303,1.09297297 5.52110092,1.09009009 L5.55816514,1.02882883 C5.56146789,1.02306306 5.56807339,1.01225225 5.57137615,1.00648649 C5.57504587,1.00036036 5.58238532,0.987747748 5.58605505,0.981261261 L5.6212844,0.92036036 C5.62348624,0.916396396 5.62788991,0.908828829 5.63009174,0.905225225 L5.65981651,0.858018018 C5.66458716,0.851171171 5.67412844,0.837117117 5.67853211,0.83027027 C5.69211009,0.81045045 5.71853211,0.770810811 5.73211009,0.750990991 C5.73321101,0.744864865 5.73614679,0.732612613 5.73761468,0.726486486 L5.76880734,0.667747748 C5.77137615,0.663423423 5.77688073,0.654414414 5.77944954,0.64972973 L5.80733945,0.606846847 C5.81247706,0.6 5.82201835,0.585945946 5.82715596,0.578738739 C5.84,0.558558559 5.86568807,0.518558559 5.87853211,0.498378378 C5.88036697,0.492612613 5.88366972,0.481081081 5.88550459,0.475315315 L5.91779817,0.415855856 C5.91926606,0.412972973 5.92220183,0.407927928 5.92366972,0.405045045 L5.96110092,0.343063063 C5.9640367,0.337657658 5.9706422,0.326846847 5.97394495,0.321441441 C5.97724771,0.315315315 5.98385321,0.303783784 5.98715596,0.298018018 L6.02385321,0.233873874 C6.02568807,0.231351351 6.02862385,0.225945946 6.03009174,0.223423423 L6.06495413,0.165405405 C6.06605505,0.163603604 6.06862385,0.15963964 6.06972477,0.157837838 Z" id="Path"></path>
                            </g>
                            <path d="M6,0.00368090539 C7.14829358,-0.00186530259 8.29694069,0.002941411 9.44558781,0.001092675 C10.3958997,0.00479014699 11.3469187,-0.00667201617 12.2968771,0.00663888298 C12.3156147,0.0443530973 12.3347058,0.0816975643 12.3548575,0.119042031 C12.3576858,0.123848745 12.3629888,0.134201667 12.3658172,0.139378127 C12.4577372,0.306873608 12.5510714,0.473629595 12.6419309,0.641494823 C12.6436985,0.644452801 12.6465269,0.649999009 12.6482945,0.652587239 C12.8243568,0.968721094 12.999712,1.2852247 13.1725924,1.60320729 C13.1740065,1.60579552 13.1771884,1.61097198 13.1786025,1.61392996 C13.2100675,1.67050128 13.242593,1.7270726 13.2747651,1.78401367 C13.2775934,1.78882038 13.2828964,1.79880356 13.2857248,1.80398002 C13.3299171,1.8853244 13.374463,1.96629904 13.4193624,2.04727367 C13.4211301,2.0498619 13.4239584,2.05503836 13.4253725,2.05799634 C13.4702719,2.13860123 13.5144643,2.21994562 13.5590101,2.30129 C13.5618385,2.30609671 13.5671415,2.31571014 13.5699698,2.32051685 C13.6148693,2.39964275 13.6583545,2.47950815 13.7014862,2.55937354 C13.7043145,2.56418026 13.7096176,2.57416343 13.7124459,2.57897015 C14.1345711,3.34138887 14.5556356,4.10417734 14.9763466,4.86770531 C14.9282654,5.08918388 15.0445796,5.30955321 14.979882,5.53214102 C14.9406392,6.14037516 14.7210917,6.73234043 14.3590681,7.21005381 C14.2413398,7.34353255 14.3555328,7.5287759 14.3428054,7.6870277 C14.215885,7.84786773 14.0525501,7.96803557 13.8984073,8.09781683 C13.8987608,8.21909392 13.8991143,8.340371 13.8938113,8.46201783 C13.7562847,8.55704286 13.5986065,8.61213519 13.4589587,8.70383249 C13.4441101,8.75300887 13.4289079,8.802555 13.4144128,8.85247087 C13.3023411,8.90793295 13.1824915,8.94379843 13.0704197,9 C12.6267287,8.86689101 12.1876337,8.71862238 11.7450033,8.58144617 C11.3331307,8.4390935 10.9113591,8.32742985 10.503729,8.17065703 L10.4803955,8.12702686 C10.4782742,8.12369914 10.4747389,8.11704369 10.4729712,8.11371596 L10.439385,8.05418667 C10.4358496,8.04790096 10.4287788,8.03532956 10.4252434,8.02904386 C10.4220616,8.02349765 10.416405,8.01277498 10.4132231,8.00722877 C10.3881219,7.96064062 10.3651419,7.91294324 10.3446366,7.86413661 L10.3425154,7.85932989 L10.3400406,7.85563242 C10.3244849,7.82975012 10.29302,7.77761576 10.2771107,7.75173346 C10.275343,7.74877548 10.2718077,7.74285952 10.27004,7.7395318 L10.2597873,7.72252343 C10.2537772,7.71180076 10.2414033,7.69072517 10.2353932,7.6800025 C10.220191,7.65301095 10.1894332,7.59902786 10.174231,7.57203632 C10.1703421,7.56538087 10.1629178,7.55170022 10.1590288,7.54504477 L10.137463,7.50659106 C10.1346347,7.5014146 10.128978,7.49143143 10.1261497,7.48625497 L10.0918565,7.42450719 C10.0904423,7.42191896 10.0872605,7.41674249 10.0858463,7.41378452 L10.0497854,7.34907876 C10.0466035,7.3431628 10.0402398,7.33133089 10.037058,7.32578468 C10.0335226,7.31912923 10.0260983,7.30544859 10.0225629,7.29879314 L9.99321919,7.24481005 C9.98968381,7.23852434 9.98261303,7.22521345 9.97907765,7.21892774 L9.95645117,7.17714631 C9.95326933,7.1716001 9.94725917,7.16050769 9.94407732,7.15496148 C9.93028931,7.12833968 9.90235976,7.07546583 9.88821821,7.04884403 C9.88680406,7.04588605 9.88326867,7.03960035 9.88185452,7.03664237 L9.87230897,7.01926426 C9.86559174,7.00891133 9.85251081,6.98820549 9.84579357,6.97785257 C9.81079324,6.91647453 9.77791415,6.85361751 9.74644921,6.79039074 C9.74468151,6.78743276 9.74149967,6.78114706 9.74008551,6.77818908 L9.73089351,6.76118071 C9.72417627,6.75119754 9.7107418,6.73123119 9.70402457,6.72161776 C9.68846887,6.69240773 9.65735746,6.63398767 9.64180176,6.60477765 C9.64003407,6.60181967 9.63649868,6.59553397 9.63508453,6.59220624 L9.62553898,6.57445838 C9.61846821,6.56225672 9.6046802,6.53822315 9.59760943,6.52602149 L9.56720511,6.47240815 C9.5643768,6.46723169 9.55836664,6.45687877 9.55518479,6.45133256 C9.54175032,6.42692924 9.51452784,6.37775287 9.50073984,6.35334955 C9.49755799,6.34780334 9.49154783,6.33634118 9.48836598,6.33042522 C9.46432535,6.28864379 9.44134534,6.24649261 9.41871887,6.20434143 C9.41695117,6.2010137 9.41306225,6.19435826 9.41129456,6.19103053 L9.37770838,6.13076174 C9.374173,6.12484578 9.36745576,6.11301387 9.36427391,6.10672817 C9.36109207,6.10118196 9.35508191,6.09008955 9.35190006,6.08454334 L9.31619266,6.01946783 C9.31442496,6.01650985 9.31124311,6.01022415 9.30947542,6.00726617 L9.28048525,5.95291333 C9.27801048,5.94847637 9.27341448,5.93997218 9.27093971,5.93553522 C9.25750524,5.91076215 9.23028276,5.86158578 9.21684829,5.83681271 C9.21401998,5.83163625 9.20836336,5.82165308 9.20553505,5.81684637 C9.18361566,5.7787624 9.16169626,5.7403087 9.14048394,5.70222473 C8.16012123,3.92300121 7.17834436,2.14488693 6.19586042,0.366772655 C6.13434469,0.255848495 6.07848558,0.140487369 6.00318185,0.0384371421 L6.00141415,0.0217985181 L6,0.00368090539 Z" id="Path" fill="#FCCD48"></path>
                            <g id="Group" transform="translate(4.000000, 0.000000)" fill="#089156">
                                <polygon id="Path" points="2.4156 0.0374693878 2.4716 0.0354693878 2.4766 0.0804693878 2.4066 0.0914693878"></polygon>
                                <path d="M1.4256,0.038537415 C1.5108,0.141802721 1.574,0.258537415 1.6436,0.370782313 C2.7552,2.17006803 3.866,3.96935374 4.9752,5.7697619 C4.4616,6.60636054 3.944,7.44108844 3.4284,8.27693878 C3.3592,7.87659864 3.23,7.48823129 3.1476,7.09013605 C3.02,6.66323129 2.9492,6.22360544 2.8172,5.79744898 C2.6652,5.10901361 2.48,4.42656463 2.314,3.7407483 C2.0608,2.74064626 1.8176,1.73829932 1.5768,0.735204082 C1.5208,0.504353741 1.4464,0.275748299 1.4256,0.038537415 Z" id="Path"></path>
                                <path d="M2.3569,0.172183673 C2.3599,0.167183673 2.3669,0.156183673 2.3699,0.151183673 C2.3669,0.156183673 2.3599,0.167183673 2.3569,0.172183673 Z" id="Path"></path>
                                <path d="M2.3109,0.24577551 C2.3159,0.23877551 2.3239,0.22377551 2.3279,0.21677551 C2.3239,0.22377551 2.3159,0.23877551 2.3109,0.24577551 Z" id="Path"></path>
                                <path d="M2.2508,0.347959184 C2.2598,0.330959184 2.2778,0.298959184 2.2868,0.282959184 C2.2778,0.298959184 2.2598,0.330959184 2.2508,0.347959184 Z" id="Path"></path>
                                <path d="M2.2371,0.368843537 C2.2451,0.353843537 2.2631,0.323843537 2.2721,0.308843537 C2.2631,0.323843537 2.2451,0.353843537 2.2371,0.368843537 Z" id="Path"></path>
                                <path d="M2.1956,0.435034014 C2.1996,0.427034014 2.2076,0.413034014 2.2116,0.405034014 C2.2076,0.413034014 2.1996,0.427034014 2.1956,0.435034014 Z" id="Path"></path>
                                <path d="M2.1519,0.531353741 C2.1569,0.515353741 2.1659,0.483353741 2.1709,0.467353741 C2.1659,0.483353741 2.1569,0.515353741 2.1519,0.531353741 Z" id="Path"></path>
                                <path d="M2.0716,0.580034014 C2.0966,0.554921906 2.1466,0.505146121 2.1716,0.480034014 C2.1466,0.505146121 2.0966,0.554921906 2.0716,0.580034014 Z" id="Path"></path>
                                <path d="M2.0638,0.648353741 C2.0778,0.629353741 2.1038,0.590353741 2.1178,0.570353741 C2.1038,0.590353741 2.0778,0.629353741 2.0638,0.648353741 Z" id="Path"></path>
                                <path d="M2.0293,0.702823129 C2.0363,0.690823129 2.0513,0.665823129 2.0583,0.652823129 C2.0513,0.665823129 2.0363,0.690823129 2.0293,0.702823129 Z" id="Path"></path>
                                <path d="M1.9935,0.794884354 C1.9965,0.777884354 2.0045,0.743884354 2.0085,0.726884354 C2.0045,0.743884354 1.9965,0.777884354 1.9935,0.794884354 Z" id="Path"></path>
                                <path d="M1.9096,0.842312925 C1.93494247,0.817312925 1.98425753,0.767312925 2.0096,0.742312925 C1.98425753,0.767312925 1.93494247,0.817312925 1.9096,0.842312925 Z" id="Path"></path>
                                <path d="M1.9039,0.908823129 C1.9169,0.889823129 1.9429,0.850823129 1.9549,0.831823129 C1.9429,0.850823129 1.9169,0.889823129 1.9039,0.908823129 Z" id="Path"></path>
                                <path d="M1.87,0.962598639 C1.876,0.951598639 1.888,0.930598639 1.894,0.920598639 C1.888,0.930598639 1.876,0.951598639 1.87,0.962598639 Z" id="Path"></path>
                                <path d="M1.8108,1.06078231 C1.8208,1.04378231 1.8408,1.00878231 1.8508,0.990782313 C1.8408,1.00878231 1.8208,1.04378231 1.8108,1.06078231 Z" id="Path"></path>
                                <path d="M1.7976,1.08147619 C1.8066,1.06547619 1.8246,1.03547619 1.8336,1.01947619 C1.8246,1.03547619 1.8066,1.06547619 1.7976,1.08147619 Z" id="Path"></path>
                                <path d="M1.7554,1.14629252 C1.7604,1.13929252 1.7694,1.12429252 1.7734,1.11629252 C1.7694,1.12429252 1.7604,1.13929252 1.7554,1.14629252 Z" id="Path"></path>
                                <path d="M1.712,1.21781633 C1.716,1.21081633 1.724,1.19681633 1.728,1.18881633 C1.724,1.19681633 1.716,1.21081633 1.712,1.21781633 Z" id="Path"></path>
                                <path d="M1.6495,1.31956463 C1.6595,1.30356463 1.6785,1.26956463 1.6885,1.25356463 C1.6785,1.26956463 1.6595,1.30356463 1.6495,1.31956463 Z" id="Path"></path>
                                <path d="M1.6339,1.34494558 C1.6439,1.32794558 1.6629,1.29494558 1.6729,1.27794558 C1.6629,1.29494558 1.6439,1.32794558 1.6339,1.34494558 Z" id="Path"></path>
                                <path d="M1.5951,1.4065102 C1.5981,1.3995102 1.6061,1.3865102 1.6101,1.3795102 C1.6061,1.3865102 1.5981,1.3995102 1.5951,1.4065102 Z" id="Path"></path>
                                <path d="M1.5529,1.50689116 C1.5569,1.48989116 1.5659,1.45589116 1.5699,1.43889116 C1.5659,1.45589116 1.5569,1.48989116 1.5529,1.50689116 Z" id="Path"></path>
                                <path d="M1.4696,1.55431973 C1.49425753,1.52920762 1.54425753,1.47898341 1.5696,1.45431973 C1.54425753,1.47898341 1.49425753,1.52920762 1.4696,1.55431973 Z" id="Path"></path>
                                <path d="M1.4653,1.62126531 C1.4773,1.60226531 1.5013,1.56426531 1.5143,1.54526531 C1.5013,1.56426531 1.4773,1.60226531 1.4653,1.62126531 Z" id="Path"></path>
                                <path d="M1.4122,1.70809524 C1.4272,1.68287785 1.4562,1.63331263 1.4702,1.60809524 C1.4562,1.63331263 1.4272,1.68287785 1.4122,1.70809524 Z" id="Path"></path>
                                <path d="M1.3742,1.77697959 C1.3872,1.75697959 1.4122,1.71597959 1.4242,1.69597959 C1.4122,1.71597959 1.3872,1.75697959 1.3742,1.77697959 Z" id="Path"></path>
                                <path d="M1.35,1.80522449 C1.364,1.78522449 1.392,1.74722449 1.406,1.72722449 C1.392,1.74722449 1.364,1.78522449 1.35,1.80522449 Z" id="Path"></path>
                                <path d="M1.3054,1.8745102 C1.3184,1.8545102 1.3434,1.8125102 1.3554,1.7915102 C1.3434,1.8125102 1.3184,1.8545102 1.3054,1.8745102 Z" id="Path"></path>
                                <path d="M1.2545,1.97454422 C1.2655,1.95154422 1.2885,1.90454422 1.2995,1.88154422 C1.2885,1.90454422 1.2655,1.95154422 1.2545,1.97454422 Z" id="Path"></path>
                                <path d="M1.2141,2.03894558 C1.2261,2.01894558 1.2511,1.97894558 1.2631,1.95894558 C1.2511,1.97894558 1.2261,2.01894558 1.2141,2.03894558 Z" id="Path"></path>
                                <path d="M1.1896,2.06612925 C1.2036,2.04712925 1.2316,2.00912925 1.2456,1.99012925 C1.2316,2.00912925 1.2036,2.04712925 1.1896,2.06612925 Z" id="Path"></path>
                                <path d="M1.1331,2.14622449 C1.1491,2.12163433 1.1831,2.07163433 1.2001,2.04622449 C1.1831,2.07163433 1.1491,2.12163433 1.1331,2.14622449 Z" id="Path"></path>
                                <path d="M1.1054,2.22046939 C1.1154,2.20046939 1.1334,2.16146939 1.1434,2.14146939 C1.1334,2.16146939 1.1154,2.20046939 1.1054,2.22046939 Z" id="Path"></path>
                                <path d="M1.032,2.26445578 C1.05681752,2.23911642 1.10718248,2.18934266 1.132,2.16445578 C1.10718248,2.18934266 1.05681752,2.23911642 1.032,2.26445578 Z" id="Path"></path>
                                <path d="M1.0235,2.33340136 C1.0375,2.31340136 1.0645,2.27340136 1.0785,2.25340136 C1.0645,2.27340136 1.0375,2.31340136 1.0235,2.33340136 Z" id="Path"></path>
                                <path d="M0.9904,2.38768027 C0.9974,2.37568027 1.0114,2.35068027 1.0184,2.33868027 C1.0114,2.35068027 0.9974,2.37568027 0.9904,2.38768027 Z" id="Path"></path>
                                <path d="M0.9459,2.47405442 C0.9519,2.46005442 0.9659,2.43205442 0.9729,2.41805442 C0.9659,2.43205442 0.9519,2.46005442 0.9459,2.47405442 Z" id="Path"></path>
                                <path d="M0.8672,2.5252381 C0.890689933,2.5002381 0.93834094,2.4502381 0.962502013,2.4252381 L0.9672,2.47318891 C0.942367785,2.48630367 0.892032215,2.51253318 0.8672,2.5252381 Z" id="Path"></path>
                                <path d="M0.8699,2.58561224 C0.8799,2.57161224 0.8989,2.54461224 0.9089,2.53061224 C0.8989,2.54461224 0.8799,2.57161224 0.8699,2.58561224 Z" id="Path"></path>
                                <path d="M0.8085,2.66591837 C0.8265,2.64091837 0.8635,2.59091837 0.8815,2.56591837 C0.8635,2.59091837 0.8265,2.64091837 0.8085,2.66591837 Z" id="Path"></path>
                                <path d="M0.7738,2.74945578 C0.7858,2.72945578 0.8108,2.68945578 0.8238,2.66945578 C0.8108,2.68945578 0.7858,2.72945578 0.7738,2.74945578 Z" id="Path"></path>
                                <path d="M0.7503,2.77801361 C0.7643,2.75801361 0.7913,2.71901361 0.8053,2.70001361 C0.7913,2.71901361 0.7643,2.75801361 0.7503,2.77801361 Z" id="Path"></path>
                                <path d="M0.7058,2.84592517 C0.7178,2.82592517 0.7428,2.78492517 0.7558,2.76492517 C0.7428,2.78492517 0.7178,2.82592517 0.7058,2.84592517 Z" id="Path"></path>
                                <path d="M0.6656,2.91229252 C0.6716,2.90229252 0.6836,2.88029252 0.6896,2.87029252 C0.6836,2.88029252 0.6716,2.90229252 0.6656,2.91229252 Z" id="Path"></path>
                                <path d="M0.6212,2.98738776 C0.6292,2.97338776 0.6452,2.94538776 0.6532,2.93138776 C0.6452,2.94538776 0.6292,2.97338776 0.6212,2.98738776 Z" id="Path"></path>
                                <path d="M0.5456,3.10792517 C0.5536,3.09492517 0.5696,3.06692517 0.5776,3.05292517 C0.5696,3.06692517 0.5536,3.09492517 0.5456,3.10792517 Z" id="Path"></path>
                                <path d="M0.502,3.17933333 C0.511,3.16333333 0.529,3.13233333 0.538,3.11733333 C0.529,3.13233333 0.511,3.16333333 0.502,3.17933333 Z" id="Path"></path>
                                <path d="M0.4477,3.26852381 C0.4587,3.24952381 0.4807,3.21052381 0.4927,3.19052381 C0.4807,3.21052381 0.4587,3.24952381 0.4477,3.26852381 Z" id="Path"></path>
                                <path d="M0.4332,3.29014966 C0.4432,3.27414966 0.4632,3.24014966 0.4732,3.22314966 C0.4632,3.24014966 0.4432,3.27414966 0.4332,3.29014966 Z" id="Path"></path>
                                <path d="M0.394,3.35127891 C0.398,3.34427891 0.406,3.33027891 0.41,3.32327891 C0.406,3.33027891 0.398,3.34427891 0.394,3.35127891 Z" id="Path"></path>
                                <path d="M0.3535,3.45309524 C0.3575,3.43509524 0.3645,3.40009524 0.3685,3.38309524 C0.3645,3.40009524 0.3575,3.43509524 0.3535,3.45309524 Z" id="Path"></path>
                                <path d="M0.2696,3.49989796 C0.294257534,3.47501317 0.344257534,3.42478275 0.3696,3.39989796 C0.344257534,3.42478275 0.294257534,3.47501317 0.2696,3.49989796 Z" id="Path"></path>
                                <path d="M0.2632,3.56597279 C0.2762,3.54697279 0.3022,3.50797279 0.3152,3.48797279 C0.3022,3.50797279 0.2762,3.54697279 0.2632,3.56597279 Z" id="Path"></path>
                                <path d="M0.2296,3.61869388 C0.2366,3.60669388 0.2506,3.58269388 0.2576,3.57069388 C0.2506,3.58269388 0.2366,3.60669388 0.2296,3.61869388 Z" id="Path"></path>
                                <path d="M0.1704,3.71830612 C0.1804,3.70030612 0.2004,3.66530612 0.2104,3.64730612 C0.2004,3.66530612 0.1804,3.70030612 0.1704,3.71830612 Z" id="Path"></path>
                                <path d="M0.1565,3.73868707 C0.1655,3.72368707 0.1835,3.69168707 0.1935,3.67668707 C0.1835,3.69168707 0.1655,3.72368707 0.1565,3.73868707 Z" id="Path"></path>
                                <path d="M0.1161,3.8017551 C0.1201,3.7947551 0.1281,3.7807551 0.1331,3.7737551 C0.1281,3.7807551 0.1201,3.7947551 0.1161,3.8017551 Z" id="Path"></path>
                                <path d="M0.0729,3.87165306 C0.0759,3.86565306 0.0829,3.85465306 0.0859,3.84865306 C0.0829,3.85465306 0.0759,3.86565306 0.0729,3.87165306 Z" id="Path"></path>
                                <path d="M4.325,8.50863946 C4.342,8.48341423 4.378,8.43296378 4.395,8.40863946 C4.378,8.43296378 4.342,8.48341423 4.325,8.50863946 Z" id="Path"></path>
                                <path d="M4.323,8.52097279 C4.328,8.51297279 4.337,8.49597279 4.341,8.48797279 C4.337,8.49597279 4.328,8.51297279 4.323,8.52097279 Z" id="Path"></path>
                                <path d="M4.245,8.65338095 C4.253,8.64038095 4.268,8.61438095 4.275,8.60138095 C4.268,8.61438095 4.253,8.64038095 4.245,8.65338095 Z" id="Path"></path>
                                <path d="M4.2018,8.72478912 C4.2098,8.70978912 4.2268,8.68078912 4.2358,8.66578912 C4.2268,8.68078912 4.2098,8.70978912 4.2018,8.72478912 Z" id="Path"></path>
                                <path d="M4.1662,8.78256463 C4.1712,8.77456463 4.1802,8.75856463 4.1842,8.75056463 C4.1802,8.75856463 4.1712,8.77456463 4.1662,8.78256463 Z" id="Path"></path>
                                <path d="M4.1052,8.88318367 C4.1142,8.86718367 4.1322,8.83518367 4.1412,8.82018367 C4.1322,8.83518367 4.1142,8.86718367 4.1052,8.88318367 Z" id="Path"></path>
                                <path d="M4.088,8.9095034 C4.098,8.8925034 4.118,8.8595034 4.128,8.8425034 C4.118,8.8595034 4.098,8.8925034 4.088,8.9095034 Z" id="Path"></path>
                                <path d="M4.0372,8.9907415 C4.0452,8.9777415 4.0612,8.9497415 4.0692,8.9367415 C4.0612,8.9497415 4.0452,8.9777415 4.0372,8.9907415 Z" id="Path"></path>
                                <path d="M3.9926,9.06328571 C4.0026,9.04528571 4.0246,9.00828571 4.0346,8.99028571 C4.0246,9.00828571 4.0026,9.04528571 3.9926,9.06328571 Z" id="Path"></path>
                                <path d="M3.9213,9.17843537 C3.9283,9.16543537 3.9433,9.14043537 3.9503,9.12843537 C3.9433,9.14043537 3.9283,9.16543537 3.9213,9.17843537 Z" id="Path"></path>
                                <path d="M3.8747,9.25291837 C3.8857,9.23391837 3.9077,9.19791837 3.9177,9.17891837 C3.9077,9.19791837 3.8857,9.23391837 3.8747,9.25291837 Z" id="Path"></path>
                                <path d="M3.8031,9.36857823 C3.8121,9.35357823 3.8291,9.32257823 3.8381,9.30757823 C3.8291,9.32257823 3.8121,9.35357823 3.8031,9.36857823 Z" id="Path"></path>
                                <path d="M3.764,9.43366667 C3.771,9.42166667 3.785,9.39666667 3.792,9.38466667 C3.785,9.39666667 3.771,9.42166667 3.764,9.43366667 Z" id="Path"></path>
                                <path d="M3.7192,9.50731973 C3.7272,9.49331973 3.7432,9.46531973 3.7512,9.45131973 C3.7432,9.46531973 3.7272,9.49331973 3.7192,9.50731973 Z" id="Path"></path>
                                <path d="M3.6408,9.63191837 C3.6498,9.61591837 3.6678,9.58491837 3.6768,9.56991837 C3.6678,9.58491837 3.6498,9.61591837 3.6408,9.63191837 Z" id="Path"></path>
                                <path d="M3.605,9.69270068 C3.611,9.68070068 3.624,9.65770068 3.631,9.64570068 C3.624,9.65770068 3.611,9.68070068 3.605,9.69270068 Z" id="Path"></path>
                                <path d="M3.5597,9.76547619 C3.5667,9.75347619 3.5817,9.72847619 3.5887,9.71547619 C3.5817,9.72847619 3.5667,9.75347619 3.5597,9.76547619 Z" id="Path"></path>
                                <path d="M3.4799,9.89293878 C3.4879,9.87993878 3.5039,9.85393878 3.5109,9.84093878 C3.5039,9.85393878 3.4879,9.87993878 3.4799,9.89293878 Z" id="Path"></path>
                                <path d="M3.4365,9.9624898 C3.4465,9.9444898 3.4675,9.9094898 3.4775,9.8914898 C3.4675,9.9094898 3.4465,9.9444898 3.4365,9.9624898 Z" id="Path"></path>
                                <path d="M3.3702,10.0702789 C3.3762,10.0592789 3.3902,10.0352789 3.3962,10.0242789 C3.3902,10.0352789 3.3762,10.0592789 3.3702,10.0702789 Z" id="Path"></path>
                                <path d="M3.3284,10.1400544 C3.3344,10.1290544 3.3464,10.1080544 3.3524,10.0970544 C3.3464,10.1080544 3.3344,10.1290544 3.3284,10.1400544 Z" id="Path"></path>
                                <path d="M3.2824,10.2132041 C3.2894,10.2022041 3.3034,10.1782041 3.3104,10.1672041 C3.3034,10.1782041 3.2894,10.2022041 3.2824,10.2132041 Z" id="Path"></path>
                                <path d="M3.1986,10.345619 C3.2096,10.327619 3.2296,10.291619 3.2406,10.274619 C3.2296,10.291619 3.2096,10.327619 3.1986,10.345619 Z" id="Path"></path>
                                <path d="M3.1666,10.4023469 C3.1736,10.3893469 3.1886,10.3613469 3.1966,10.3473469 C3.1886,10.3613469 3.1736,10.3893469 3.1666,10.4023469 Z" id="Path"></path>
                                <path d="M3.1106,10.4929592 C3.1186,10.4779592 3.1366,10.4479592 3.1446,10.4329592 C3.1366,10.4479592 3.1186,10.4779592 3.1106,10.4929592 Z" id="Path"></path>
                                <path d="M3.0977,10.5133469 C3.1057,10.4993469 3.1217,10.4703469 3.1307,10.4563469 C3.1217,10.4703469 3.1057,10.4993469 3.0977,10.5133469 Z" id="Path"></path>
                            </g>
                            <g id="Group" transform="translate(12.000000, 0.000000)" fill="#10985B">
                                <path d="M0.0810853659,0.0587132353 C0.0890853659,0.0717132353 0.104085366,0.0997132353 0.112085366,0.113713235 C0.104085366,0.0997132353 0.0890853659,0.0717132353 0.0810853659,0.0587132353 Z" id="Path"></path>
                                <path d="M0.480512195,0.586102941 C0.485512195,0.594102941 0.493512195,0.609102941 0.498512195,0.616102941 C0.493512195,0.609102941 0.485512195,0.594102941 0.480512195,0.586102941 Z" id="Path"></path>
                                <path d="M1.21296341,1.54266912 C1.21696341,1.54966912 1.22596341,1.56366912 1.22996341,1.57166912 C1.22596341,1.56366912 1.21696341,1.54966912 1.21296341,1.54266912 Z" id="Path"></path>
                                <path d="M1.35035366,1.71454412 C1.35835366,1.72754412 1.37335366,1.75454412 1.38135366,1.76854412 C1.37335366,1.75454412 1.35835366,1.72754412 1.35035366,1.71454412 Z" id="Path"></path>
                                <path d="M1.55345122,1.98421324 C1.55845122,1.99121324 1.56645122,2.00521324 1.57045122,2.01321324 C1.56645122,2.00521324 1.55845122,1.99121324 1.55345122,1.98421324 Z" id="Path"></path>
                                <path d="M1.74254878,2.22951471 C1.75054878,2.24251471 1.76554878,2.26851471 1.77354878,2.28151471 C1.76554878,2.26851471 1.75054878,2.24251471 1.74254878,2.22951471 Z" id="Path"></path>
                                <path d="M1.93913415,2.48581618 C1.94713415,2.49881618 1.96213415,2.52581618 1.97013415,2.53881618 C1.96213415,2.52581618 1.94713415,2.49881618 1.93913415,2.48581618 Z" id="Path"></path>
                            </g>
                            <g id="Group" transform="translate(13.000000, 5.000000)" fill="#F9C941">
                                <path d="M2.04827586,0.0243037975 C2.70244514,1.16848101 3.36075235,2.31075949 4.00965517,3.45835443 C4.01266458,3.46329114 4.01868339,3.47392405 4.02169279,3.47886076 C4.03673981,3.50392405 4.06683386,3.55367089 4.0815047,3.57835443 C4.08451411,3.58329114 4.09053292,3.5935443 4.09354232,3.59848101 L4.12363636,3.65050633 C4.12551724,3.65392405 4.129279,3.66113924 4.13153605,3.66455696 L4.16915361,3.73063291 C4.17291536,3.73708861 4.1800627,3.75037975 4.18382445,3.75683544 C4.18721003,3.76253165 4.19398119,3.7743038 4.19736677,3.78037975 L4.23423197,3.84493671 C4.23573668,3.84759494 4.23874608,3.85291139 4.24025078,3.85556962 L4.27711599,3.91936709 C4.27862069,3.92202532 4.28163009,3.92696203 4.2831348,3.92962025 L4.32,3.99417722 C4.32376176,4.00063291 4.33090909,4.01316456 4.33467085,4.01962025 C4.33805643,4.02607595 4.34520376,4.03860759 4.34858934,4.04468354 L4.38658307,4.11227848 C4.39184953,4.12556962 4.40238245,4.15139241 4.4076489,4.1643038 L4.41818182,4.18518987 L4.4230721,4.19620253 L4.43134796,4.20721519 L4.45354232,4.24101266 C4.46144201,4.2535443 4.4768652,4.27860759 4.48476489,4.29113924 C4.489279,4.29873418 4.49905956,4.31392405 4.50357367,4.32151899 L4.52840125,4.36139241 C4.53592476,4.37848101 4.55097179,4.41303797 4.5584953,4.43012658 L4.56978056,4.45063291 L4.5739185,4.45860759 L4.57730408,4.4635443 C4.5938558,4.48822785 4.62658307,4.53797468 4.6431348,4.56265823 C4.64727273,4.56949367 4.65554859,4.58316456 4.6600627,4.59 L4.68263323,4.62797468 C4.68601881,4.63405063 4.69278997,4.64582278 4.69617555,4.65151899 L4.73416928,4.71873418 C4.73755486,4.72481013 4.74432602,4.73696203 4.7477116,4.74303797 C4.75109718,4.74911392 4.75786834,4.76088608 4.76125392,4.76696203 L4.79887147,4.83189873 C4.80037618,4.83493671 4.80376176,4.84063291 4.80564263,4.84329114 L4.83987461,4.90405063 C4.84213166,4.9078481 4.84664577,4.91582278 4.84890282,4.91962025 L4.88351097,4.98075949 C4.8876489,4.98759494 4.89554859,5.00164557 4.89968652,5.00848101 C4.9030721,5.01455696 4.91021944,5.02670886 4.91360502,5.03278481 C4.94144201,5.07949367 4.96815047,5.12696203 4.99297806,5.17556962 C4.99673981,5.1835443 5.00426332,5.19949367 5.0076489,5.20746835 L5.02495298,5.24696203 C5.02946708,5.25455696 5.0384953,5.27012658 5.04263323,5.27772152 C5.04827586,5.28531646 5.05918495,5.29974684 5.06482759,5.30696203 L5.0907837,5.34417722 C5.09529781,5.35139241 5.10432602,5.36582278 5.1092163,5.37341772 L5.14721003,5.43987342 C5.15059561,5.44594937 5.15736677,5.45810127 5.16075235,5.46417722 C5.16413793,5.47025316 5.17090909,5.48202532 5.17467085,5.48810127 L5.2122884,5.55341772 C5.2137931,5.5564557 5.21680251,5.56177215 5.21830721,5.56443038 L5.25404389,5.62746835 C5.25554859,5.63012658 5.25855799,5.63506329 5.2600627,5.63772152 L5.29655172,5.70189873 C5.30031348,5.70835443 5.30783699,5.72126582 5.31159875,5.72810127 C5.3153605,5.73455696 5.32288401,5.74746835 5.32626959,5.75392405 L5.36388715,5.81924051 C5.36539185,5.82189873 5.36802508,5.82721519 5.36952978,5.82987342 L5.40940439,5.90506329 L5.40902821,5.93924051 C4.46783699,5.66620253 3.54169279,5.34227848 2.59786834,5.07911392 C1.74131661,4.8 0.876865204,4.54594937 0.0203134796,4.26835443 C0.139561129,4.21063291 0.267084639,4.17379747 0.386332288,4.11683544 C0.401755486,4.06556962 0.417931034,4.01468354 0.433730408,3.96417722 C0.582319749,3.87 0.750094044,3.81341772 0.896426332,3.71582278 C0.902068966,3.59088608 0.90169279,3.46632911 0.901316614,3.34177215 C1.06532915,3.20848101 1.23912226,3.08506329 1.37416928,2.91987342 C1.3877116,2.75734177 1.2662069,2.56708861 1.39147335,2.43 C1.77667712,1.93936709 2.01028213,1.33139241 2.05203762,0.706708861 C2.12087774,0.478101266 1.99711599,0.251772152 2.04827586,0.0243037975 Z" id="Path"></path>
                                <polygon id="Path" points="5.41495455 5.94482278 5.46695455 5.94682278 5.49595455 6.02282278 5.43695455 6.02682278"></polygon>
                            </g>
                            <g id="Group" transform="translate(9.000000, 6.000000)" fill="#E3B73A">
                                <path d="M0.0682222222,0.026030303 C0.0762222222,0.039030303 0.0922222222,0.066030303 0.100222222,0.080030303 C0.0922222222,0.066030303 0.0762222222,0.039030303 0.0682222222,0.026030303 Z" id="Path"></path>
                                <path d="M0.141694444,0.149795455 C0.148694444,0.161795455 0.161694444,0.184795455 0.168694444,0.196795455 C0.161694444,0.184795455 0.148694444,0.161795455 0.141694444,0.149795455 Z" id="Path"></path>
                                <path d="M0.186527778,0.227628788 C0.191527778,0.235628788 0.200527778,0.252628788 0.205527778,0.260628788 C0.200527778,0.252628788 0.191527778,0.235628788 0.186527778,0.227628788 Z" id="Path"></path>
                                <path d="M0.228305556,0.298409091 C0.237305556,0.313409091 0.254305556,0.343409091 0.263305556,0.358409091 C0.254305556,0.343409091 0.237305556,0.313409091 0.228305556,0.298409091 Z" id="Path"></path>
                                <path d="M0.241,0.319583333 C0.25,0.336583333 0.269,0.368583333 0.279,0.384583333 C0.269,0.368583333 0.25,0.336583333 0.241,0.319583333 Z" id="Path"></path>
                                <path d="M0.297916667,0.414954545 C0.302916667,0.423954545 0.313916667,0.441954545 0.318916667,0.450954545 C0.313916667,0.441954545 0.302916667,0.423954545 0.297916667,0.414954545 Z" id="Path"></path>
                                <path d="M0.378416667,0.549681818 C0.387416667,0.565681818 0.404416667,0.596681818 0.413416667,0.611681818 C0.404416667,0.596681818 0.387416667,0.565681818 0.378416667,0.549681818 Z" id="Path"></path>
                                <path d="M0.452222222,0.675098485 C0.461222222,0.690098485 0.478222222,0.718098485 0.486222222,0.732098485 C0.478222222,0.718098485 0.461222222,0.690098485 0.452222222,0.675098485 Z" id="Path"></path>
                                <path d="M0.485138889,0.738257576 C0.505138889,0.763448415 0.544138889,0.813066736 0.564138889,0.838257576 C0.544138889,0.813066736 0.505138889,0.763448415 0.485138889,0.738257576 Z" id="Path"></path>
                                <path d="M0.544694444,0.826560606 C0.548694444,0.835560606 0.558694444,0.852560606 0.563694444,0.860560606 C0.558694444,0.852560606 0.548694444,0.835560606 0.544694444,0.826560606 Z" id="Path"></path>
                                <path d="M0.603111111,0.938636364 C0.622111111,0.962935429 0.660111111,1.01340272 0.679111111,1.03863636 C0.660111111,1.01340272 0.622111111,0.962935429 0.603111111,0.938636364 Z" id="Path"></path>
                                <path d="M0.6605,1.01740152 C0.6645,1.02540152 0.6735,1.04240152 0.6785,1.05040152 C0.6735,1.04240152 0.6645,1.02540152 0.6605,1.01740152 Z" id="Path"></path>
                                <path d="M0.759361111,1.20113636 C0.778361111,1.22613636 0.815361111,1.27613636 0.834361111,1.30113636 C0.815361111,1.27613636 0.778361111,1.22613636 0.759361111,1.20113636 Z" id="Path"></path>
                                <path d="M0.816444444,1.28217424 C0.820444444,1.29017424 0.830444444,1.30717424 0.834444444,1.31517424 C0.830444444,1.30717424 0.820444444,1.29017424 0.816444444,1.28217424 Z" id="Path"></path>
                                <path d="M0.879694444,1.395 C0.888694444,1.41 0.905694444,1.44 0.914694444,1.455 C0.905694444,1.44 0.888694444,1.41 0.879694444,1.395 Z" id="Path"></path>
                                <path d="M0.916666667,1.45742424 C0.926666667,1.47442424 0.946666667,1.51042424 0.956666667,1.52742424 C0.946666667,1.51042424 0.926666667,1.47442424 0.916666667,1.45742424 Z" id="Path"></path>
                                <path d="M0.964194444,1.53831061 C0.974194444,1.55631061 0.995194444,1.59331061 1.00519444,1.61131061 C0.995194444,1.59331061 0.974194444,1.55631061 0.964194444,1.53831061 Z" id="Path"></path>
                                <path d="M0.981666667,1.56906818 C0.990666667,1.58406818 1.00866667,1.61606818 1.01766667,1.63206818 C1.00866667,1.61606818 0.990666667,1.58406818 0.981666667,1.56906818 Z" id="Path"></path>
                                <path d="M1.04113889,1.6697803 C1.04513889,1.6777803 1.05413889,1.6917803 1.05813889,1.6987803 C1.05413889,1.6917803 1.04513889,1.6777803 1.04113889,1.6697803 Z" id="Path"></path>
                                <path d="M1.08088889,1.73594697 C1.08888889,1.74994697 1.10488889,1.77694697 1.11288889,1.79094697 C1.10488889,1.77694697 1.08888889,1.74994697 1.08088889,1.73594697 Z" id="Path"></path>
                                <path d="M1.11369444,1.79058333 C1.12469444,1.80858333 1.14569444,1.84558333 1.15669444,1.86358333 C1.14569444,1.84558333 1.12469444,1.80858333 1.11369444,1.79058333 Z" id="Path"></path>
                                <path d="M1.18975,1.92045455 C1.20675,1.94567194 1.24175,1.99523715 1.25875,2.02045455 C1.24175,1.99523715 1.20675,1.94567194 1.18975,1.92045455 Z" id="Path"></path>
                                <path d="M1.24283333,2.00225 C1.24783333,2.01125 1.25783333,2.02725 1.26283333,2.03525 C1.25783333,2.02725 1.24783333,2.01125 1.24283333,2.00225 Z" id="Path"></path>
                                <path d="M1.32197222,2.12429545 L1.32897222,2.13429545 L1.33497222,2.14729545 C1.33197222,2.14129545 1.32497222,2.13029545 1.32197222,2.12429545 Z" id="Path"></path>
                                <path d="M1.39605556,2.26841667 C1.40505556,2.28341667 1.42105556,2.31241667 1.43005556,2.32741667 C1.42105556,2.31241667 1.40505556,2.28341667 1.39605556,2.26841667 Z" id="Path"></path>
                                <path d="M1.40744444,2.2879697 C1.41744444,2.3049697 1.43744444,2.3389697 1.44744444,2.3559697 C1.43744444,2.3389697 1.41744444,2.3049697 1.40744444,2.2879697 Z" id="Path"></path>
                                <path d="M1.46575,2.38465152 C1.47075,2.39365152 1.48075,2.41165152 1.48675,2.42065152 C1.48075,2.41165152 1.47075,2.39365152 1.46575,2.38465152 Z" id="Path"></path>
                                <path d="M1.47544444,2.42310606 C1.92383333,2.58371212 2.38777778,2.69810606 2.84083333,2.84393939 C3.32772222,2.9844697 3.81072222,3.13636364 4.29877778,3.27272727 C5.18427778,3.54962121 6.07794444,3.8030303 6.96344444,4.08143939 C6.95022222,4.26590909 6.98755556,4.45492424 6.9405,4.63598485 C6.90433333,4.81212121 6.68811111,4.83977273 6.59905556,4.98030303 C5.40244444,4.98068182 4.20622222,4.98409091 3.01,4.97916667 L2.98433333,4.97727273 C2.49005556,4.12121212 1.97594444,3.27575758 1.47544444,2.42310606 Z" id="Path"></path>
                            </g>
                            <g id="Group" transform="translate(14.000000, 8.000000)" fill="#E8B835">
                                <path d="M1.68225581,0.0600588235 C1.69025581,0.0730588235 1.70625581,0.101058824 1.71425581,0.114058824 C1.70625581,0.101058824 1.69025581,0.0730588235 1.68225581,0.0600588235 Z" id="Path"></path>
                                <path d="M1.74888372,0.19975 C1.75688372,0.21275 1.77288372,0.23975 1.78088372,0.25275 C1.77288372,0.23975 1.75688372,0.21275 1.74888372,0.19975 Z" id="Path"></path>
                                <path d="M1.79153488,0.288044118 C1.79653488,0.297044118 1.80653488,0.316044118 1.81253488,0.325044118 C1.80653488,0.316044118 1.79653488,0.297044118 1.79153488,0.288044118 Z" id="Path"></path>
                                <path d="M1.82788372,0.372191176 C1.83788372,0.389191176 1.85688372,0.424191176 1.86688372,0.441191176 C1.85688372,0.424191176 1.83788372,0.389191176 1.82788372,0.372191176 Z" id="Path"></path>
                                <path d="M1.84246512,0.404588235 C1.85146512,0.419588235 1.86946512,0.450588235 1.87846512,0.466588235 C1.86946512,0.450588235 1.85146512,0.419588235 1.84246512,0.404588235 Z" id="Path"></path>
                                <path d="M1.89572093,0.516441176 C1.89972093,0.523441176 1.90772093,0.537441176 1.91172093,0.544441176 C1.90772093,0.537441176 1.89972093,0.523441176 1.89572093,0.516441176 Z" id="Path"></path>
                                <path d="M1.93548837,0.603191176 C1.93948837,0.610191176 1.94748837,0.623191176 1.95148837,0.630191176 C1.94748837,0.623191176 1.93948837,0.610191176 1.93548837,0.603191176 Z" id="Path"></path>
                                <path d="M1.96776744,0.678926471 C1.97776744,0.695926471 1.99676744,0.728926471 2.00676744,0.745926471 C1.99676744,0.728926471 1.97776744,0.695926471 1.96776744,0.678926471 Z" id="Path"></path>
                                <path d="M1.98202326,0.708764706 C1.99102326,0.725764706 2.01002326,0.758764706 2.01902326,0.774764706 C2.01002326,0.758764706 1.99102326,0.725764706 1.98202326,0.708764706 Z" id="Path"></path>
                                <path d="M2.02397674,0.806911765 C2.03797674,0.83245921 2.06597674,0.882094246 2.07997674,0.906911765 C2.06597674,0.882094246 2.03797674,0.83245921 2.02397674,0.806911765 Z" id="Path"></path>
                                <path d="M2.06011628,0.903352941 C2.06911628,0.918352941 2.08611628,0.947352941 2.09511628,0.961352941 L2.07311628,0.932352941 L2.06011628,0.903352941 Z" id="Path"></path>
                                <path d="M2.07727907,0.956470588 C2.09827907,0.981470588 2.13927907,1.03147059 2.16027907,1.05647059 C2.13927907,1.03147059 2.09827907,0.981470588 2.07727907,0.956470588 Z" id="Path"></path>
                                <path d="M2.11697674,1.02029412 C2.12897674,1.04029412 2.15497674,1.08029412 2.16697674,1.10029412 C2.15497674,1.08029412 2.12897674,1.04029412 2.11697674,1.02029412 Z" id="Path"></path>
                                <path d="M2.14767442,1.09632353 C2.16767442,1.12118541 2.20767442,1.17146165 2.22767442,1.19632353 C2.20767442,1.17146165 2.16767442,1.12118541 2.14767442,1.09632353 Z" id="Path"></path>
                                <path d="M2.2055814,1.21844118 C2.2105814,1.22744118 2.2205814,1.24444118 2.2255814,1.25244118 L2.2165814,1.23944118 L2.2055814,1.21844118 Z" id="Path"></path>
                                <path d="M2.26546512,1.33797059 C2.27646512,1.35597059 2.29846512,1.39197059 2.31046512,1.40997059 C2.29846512,1.39197059 2.27646512,1.35597059 2.26546512,1.33797059 Z" id="Path"></path>
                                <path d="M2.30502326,1.41664706 C2.31402326,1.43264706 2.33202326,1.46364706 2.34102326,1.47864706 C2.33202326,1.46364706 2.31402326,1.43264706 2.30502326,1.41664706 Z" id="Path"></path>
                                <path d="M2.35281395,1.52152941 C2.36181395,1.53752941 2.37981395,1.56952941 2.38881395,1.58552941 C2.37981395,1.56952941 2.36181395,1.53752941 2.35281395,1.52152941 Z" id="Path"></path>
                                <path d="M2.36537209,1.55004412 C2.37437209,1.56604412 2.39237209,1.59704412 2.40137209,1.61304412 C2.39237209,1.59704412 2.37437209,1.56604412 2.36537209,1.55004412 Z" id="Path"></path>
                                <path d="M2.41867442,1.6625 C2.42267442,1.6705 2.43167442,1.6855 2.43667442,1.6925 C2.43167442,1.6855 2.42267442,1.6705 2.41867442,1.6625 Z" id="Path"></path>
                                <path d="M2.45474419,1.74325 C2.46074419,1.75325 2.47274419,1.77425 2.47874419,1.78425 C2.47274419,1.77425 2.46074419,1.75325 2.45474419,1.74325 Z" id="Path"></path>
                                <path d="M2.48902326,1.82342647 C2.50002326,1.84142647 2.52102326,1.87842647 2.53202326,1.89642647 C2.52102326,1.87842647 2.50002326,1.84142647 2.48902326,1.82342647 Z" id="Path"></path>
                                <path d="M2.50597674,1.85814706 C2.51497674,1.87414706 2.53397674,1.90614706 2.54297674,1.92214706 C2.53397674,1.90614706 2.51497674,1.87414706 2.50597674,1.85814706 Z" id="Path"></path>
                                <path d="M0.350930233,1.93014706 C1.22616279,2.23588235 2.085,2.61220588 2.9577907,2.92941176 L2.96546512,2.96558824 C1.9855814,2.99382353 1.00430233,2.97044118 0.0240697674,2.97705882 C0.103953488,2.81338235 0.297906977,2.78117647 0.330348837,2.57602941 C0.37255814,2.36514706 0.339069767,2.145 0.350930233,1.93014706 Z" id="Path"></path>
                                <path d="M2.59183721,2.04667647 C2.60183721,2.06767647 2.62183721,2.10967647 2.63083721,2.13067647 C2.62183721,2.10967647 2.60183721,2.06767647 2.59183721,2.04667647 Z" id="Path"></path>
                                <path d="M2.61888372,2.13045588 C2.63088372,2.15045588 2.65488372,2.19145588 2.66588372,2.21145588 C2.65488372,2.19145588 2.63088372,2.15045588 2.61888372,2.13045588 Z" id="Path"></path>
                                <path d="M2.63137209,2.16730882 C2.64637209,2.18730882 2.67537209,2.22530882 2.69037209,2.24430882 C2.67537209,2.22530882 2.64637209,2.18730882 2.63137209,2.16730882 Z" id="Path"></path>
                                <path d="M2.67927907,2.24451471 C2.69127907,2.26351471 2.71527907,2.30151471 2.72827907,2.32151471 C2.71527907,2.30151471 2.69127907,2.26351471 2.67927907,2.24451471 Z" id="Path"></path>
                                <path d="M2.73583721,2.35932353 C2.74483721,2.37532353 2.76283721,2.40732353 2.77183721,2.42332353 C2.76283721,2.40732353 2.74483721,2.37532353 2.73583721,2.35932353 Z" id="Path"></path>
                                <path d="M2.74806977,2.38783824 C2.75706977,2.40383824 2.77506977,2.43483824 2.78506977,2.45083824 C2.77506977,2.43483824 2.75706977,2.40383824 2.74806977,2.38783824 Z" id="Path"></path>
                                <path d="M2.80269767,2.50101471 C2.80669767,2.50901471 2.81469767,2.52301471 2.81869767,2.53001471 C2.81469767,2.52301471 2.80669767,2.50901471 2.80269767,2.50101471 Z" id="Path"></path>
                                <path d="M2.8414186,2.58760294 C2.8454186,2.59460294 2.8534186,2.60760294 2.8574186,2.61460294 C2.8534186,2.60760294 2.8454186,2.59460294 2.8414186,2.58760294 Z" id="Path"></path>
                                <path d="M2.87302326,2.66233824 C2.88302326,2.67933824 2.90302326,2.71333824 2.91302326,2.73133824 C2.90302326,2.71333824 2.88302326,2.67933824 2.87302326,2.66233824 Z" id="Path"></path>
                                <path d="M2.88730233,2.69305882 C2.89730233,2.71005882 2.91730233,2.74405882 2.92630233,2.76105882 C2.91730233,2.74405882 2.89730233,2.71005882 2.88730233,2.69305882 Z" id="Path"></path>
                                <path d="M2.94360465,2.81011765 C2.94760465,2.81711765 2.95460465,2.83111765 2.95860465,2.83811765 C2.95460465,2.83111765 2.94760465,2.81711765 2.94360465,2.81011765 Z" id="Path"></path>
                                <path d="M2.9744186,2.89194118 C2.9874186,2.91494118 3.0124186,2.96094118 3.0254186,2.98394118 L2.9734186,2.98194118 L2.9744186,2.89194118 Z" id="Path"></path>
                            </g>
                            <g id="Group" transform="translate(3.000000, 10.000000)" fill="#296AD9">
                                <path d="M2.16182927,2.05432258 C2.53902439,1.37380645 2.89756098,0.680516129 3.28719512,0.00812903226 C5.17609756,0.015483871 7.06536585,-0.00309677419 8.95390244,0.015483871 L8.97804878,0.0174193548 C8.02280488,0.0499354839 7.065,0.00890322581 6.1097561,0.0344516129 C5.92756098,0.158709677 5.80609756,0.36 5.63158537,0.495483871 C5.4695122,0.620516129 5.3502439,0.794709677 5.1954878,0.928258065 C4.97853659,1.09741935 4.81719512,1.332 4.59695122,1.49767742 C4.34231707,1.78296774 4.04853659,2.02335484 3.79170732,2.30709677 C3.59926829,2.46348387 3.43829268,2.65664516 3.25902439,2.82890323 C3.06182927,2.98025806 2.91073171,3.18541935 2.72634146,3.35264516 C2.72158537,3.35690323 2.71243902,3.36541935 2.70768293,3.37006452 C2.69780488,3.37819355 2.67841463,3.39522581 2.66853659,3.40335484 C2.66378049,3.4076129 2.655,3.41535484 2.6502439,3.4196129 C2.505,3.53845161 2.39378049,3.69522581 2.25109756,3.81716129 C2.24634146,3.82141935 2.23719512,3.82954839 2.23280488,3.83341935 C2.22804878,3.83767742 2.21890244,3.84580645 2.21414634,3.84967742 C2.00597561,4.03045161 1.83914634,4.25922581 1.62073171,4.4276129 C1.40085366,4.65832258 1.15280488,4.85651613 0.943902439,5.0996129 C0.635121951,5.36825806 0.36804878,5.68529032 0.0497560976,5.94270968 C0.128780488,5.7603871 0.233414634,5.59316129 0.325243902,5.41858065 C0.937682927,4.29716129 1.54939024,3.17574194 2.16182927,2.05432258 Z" id="Path"></path>
                                <path d="M0.0514146341,6.01743548 C0.0624146341,6.00143548 0.0844146341,5.96943548 0.0954146341,5.95343548 L0.0924146341,6.01843548 L0.0514146341,6.01743548 Z" id="Path"></path>
                            </g>
                            <path d="M11.6822634,10.0105135 C12.776484,10.0155756 13.8707046,10.0120711 14.9652809,10.0116817 C15.9648777,10.0058408 16.9655418,10.0264784 17.9647829,10.0015576 L17.9857709,10 L18,10.0042833 L18,10.0073984 C16.9449095,12.0037951 15.8930206,14.0025281 14.8379301,15.9993142 C10.8918348,15.998146 6.94573956,16.0032081 3,15.9961991 L3.00106719,15.9708888 C3.3105509,15.7119452 3.57023265,15.3930358 3.87046743,15.1227999 C4.07358835,14.8782637 4.31477222,14.6788966 4.52856499,14.4468208 C4.74093485,14.2774367 4.90314701,14.0473078 5.10555648,13.8654632 C5.11018095,13.8615694 5.11907416,13.8533922 5.12369863,13.8491089 C5.12796737,13.845215 5.13686058,13.8370379 5.14148505,13.8327546 C5.28021913,13.7100971 5.38836057,13.5523946 5.52958475,13.4328522 C5.53420922,13.4285689 5.5427467,13.4207812 5.54737117,13.4164979 C5.55697583,13.4083207 5.57582944,13.3911876 5.58543411,13.3830104 C5.59005858,13.3783378 5.59895179,13.3697712 5.60357626,13.3654879 C5.78286338,13.197272 5.92977921,12.9908959 6.12151683,12.8386448 C6.29582375,12.6653668 6.45234425,12.4710617 6.6394574,12.3137486 C6.88917874,12.0283266 7.17482866,11.7865161 7.42241563,11.4995365 C7.63656414,11.3328781 7.79344037,11.0969084 8.00438732,10.9267455 C8.15486044,10.7924063 8.2708279,10.6171813 8.42841559,10.4914087 C8.59809804,10.3551226 8.71619987,10.1526404 8.89335262,10.0276466 C9.82215951,10.0019469 10.7534565,10.0432222 11.6822634,10.0105135 Z" id="Path" fill="#2A71E9"></path>
                            <g id="Group" transform="translate(5.000000, 14.000000)" fill="#286EE6">
                                <path d="M0.483333333,0.0844642857 C0.496333333,0.0724642857 0.521333333,0.0504642857 0.534333333,0.0394642857 C0.521333333,0.0504642857 0.496333333,0.0724642857 0.483333333,0.0844642857 Z" id="Path"></path>
                                <path d="M0.431333333,0.128357143 C0.456566978,0.107357143 0.506099688,0.0633571429 0.531333333,0.0423571429 C0.506099688,0.0633571429 0.456566978,0.107357143 0.431333333,0.128357143 Z" id="Path"></path>
                                <path d="M0.431333333,0.129214286 C0.444333333,0.118214286 0.468333333,0.0982142857 0.481333333,0.0872142857 C0.468333333,0.0982142857 0.444333333,0.118214286 0.431333333,0.129214286 Z" id="Path"></path>
                                <path d="M0.051,0.511 C0.063,0.501 0.088,0.48 0.101,0.469 C0.088,0.48 0.063,0.501 0.051,0.511 Z" id="Path"></path>
                                <path d="M0.0336666667,0.526 C0.0466666667,0.516 0.0716666667,0.495 0.0846666667,0.484 C0.0716666667,0.495 0.0466666667,0.516 0.0336666667,0.526 Z" id="Path"></path>
                            </g>
                        </g>
                    </g>
                </g>
            </g>
        </g>
    </g>
</svg>