<?xml version="1.0" encoding="UTF-8"?>
<svg width="18px" height="4px" viewBox="0 0 18 4" version="1.1" xmlns="http://www.w3.org/2000/svg" xmlns:xlink="http://www.w3.org/1999/xlink">
    <title>Shape@3x</title>
    <g id="Default-Views" stroke="none" stroke-width="1" fill="none" fill-rule="evenodd">
        <g id="Messages" transform="translate(-1390.000000, -110.000000)" fill="#92929D">
            <g id="ic_Settings" transform="translate(1390.000000, 110.000000)">
                <path d="M9,7 C10.1045695,7 11,7.8954305 11,9 C11,10.1045695 10.1045695,11 9,11 C7.8954305,11 7,10.1045695 7,9 C7,7.8954305 7.8954305,7 9,7 Z M9,0 C10.1045695,0 11,0.8954305 11,2 C11,3.1045695 10.1045695,4 9,4 C7.8954305,4 7,3.1045695 7,2 C7,0.8954305 7.8954305,0 9,0 Z M9,-7 C10.1045695,-7 11,-6.1045695 11,-5 C11,-3.8954305 10.1045695,-3 9,-3 C7.8954305,-3 7,-3.8954305 7,-5 C7,-6.1045695 7.8954305,-7 9,-7 Z" id="Shape" transform="translate(9.000000, 2.000000) rotate(-90.000000) translate(-9.000000, -2.000000) "></path>
            </g>
        </g>
    </g>
</svg>