<?xml version="1.0" encoding="UTF-8"?>
<svg width="22px" height="22px" viewBox="0 0 22 22" version="1.1" xmlns="http://www.w3.org/2000/svg" xmlns:xlink="http://www.w3.org/1999/xlink">
    <title>Shape@3x</title>
    <g id="Default-Views" stroke="none" stroke-width="1" fill="none" fill-rule="evenodd">
        <g id="Messages" transform="translate(-1352.000000, -972.000000)" fill="#B5B5BE">
            <g id="Emoji-Icon" transform="translate(1352.000000, 972.000000)">
                <path d="M11,22 C4.92486775,22 0,17.0751322 0,11 C0,4.92486775 4.92486775,0 11,0 C17.0751322,0 22,4.92486775 22,11 C22,17.0751322 17.0751322,22 11,22 Z M11,20 C15.9705627,20 20,15.9705627 20,11 C20,6.02943725 15.9705627,2 11,2 C6.02943725,2 2,6.02943725 2,11 C2,15.9705627 6.02943725,20 11,20 Z M6.40743989,15.8199096 C5.96526287,15.4890049 5.87505884,14.8622983 6.20596355,14.4201213 C6.53686826,13.9779443 7.16357483,13.8877403 7.60575185,14.218645 C9.42864824,15.5828158 12.6282142,15.5914567 14.3918919,14.2281033 C14.8288453,13.8903308 15.4568846,13.9707328 15.7946571,14.4076861 C16.1324295,14.8446395 16.0520275,15.4726788 15.6150742,15.8104513 C13.1332992,17.7289062 8.94324799,17.7175904 6.40743989,15.8199096 Z M7.5,10 C6.67157288,10 6,9.32842712 6,8.5 C6,7.67157288 6.67157288,7 7.5,7 C8.32842712,7 9,7.67157288 9,8.5 C9,9.32842712 8.32842712,10 7.5,10 Z M14.5,10 C13.6715729,10 13,9.32842712 13,8.5 C13,7.67157288 13.6715729,7 14.5,7 C15.3284271,7 16,7.67157288 16,8.5 C16,9.32842712 15.3284271,10 14.5,10 Z" id="Shape"></path>
            </g>
        </g>
    </g>
</svg>