<?xml version="1.0" encoding="UTF-8"?>
<svg width="20px" height="20px" viewBox="0 0 20 20" version="1.1" xmlns="http://www.w3.org/2000/svg" xmlns:xlink="http://www.w3.org/1999/xlink">
    <title>Combined Shape@3x</title>
    <g id="Default-Views" stroke="none" stroke-width="1" fill="none" fill-rule="evenodd">
        <g id="Courses" transform="translate(-1381.000000, -145.000000)" fill="#FFFFFF">
            <g id="Live-Courses" transform="translate(669.000000, 117.000000)">
                <g id="Share" transform="translate(704.000000, 20.000000)">
                    <g id="iconspace_Expand_25px" transform="translate(6.000000, 6.000000)">
                        <path d="M21.1428571,16.8571429 C21.6162441,16.8571429 22,17.2408988 22,17.7142857 L22,18.8571429 C22,20.5928949 20.5928949,22 18.8571429,22 L17.7142857,22 C17.2408988,22 16.8571429,21.6162441 16.8571429,21.1428571 C16.8571429,20.6694702 17.2408988,20.2857143 17.7142857,20.2857143 L18.8571429,20.2857143 C19.6461211,20.2857143 20.2857143,19.6461211 20.2857143,18.8571429 L20.2857143,17.7142857 C20.2857143,17.2408988 20.6694702,16.8571429 21.1428571,16.8571429 Z M2.85714286,16.8571429 C3.33052979,16.8571429 3.71428571,17.2408988 3.71428571,17.7142857 L3.71428571,18.8571429 C3.71428571,19.6461211 4.35387893,20.2857143 5.14285714,20.2857143 L6.27525112,20.2857143 C6.74863804,20.2857143 7.13239397,20.6694702 7.13239397,21.1428571 C7.13239397,21.6162441 6.74863804,22 6.27525112,22 L5.14285714,22 C3.40710507,22 2,20.5928949 2,18.8571429 L2,17.7142857 C2,17.2408988 2.38375593,16.8571429 2.85714286,16.8571429 Z M15.4285714,6.85714286 C16.3753453,6.85714286 17.1428571,7.62465471 17.1428571,8.57142857 L17.1428571,15.4285714 C17.1428571,16.3753453 16.3753453,17.1428571 15.4285714,17.1428571 L8.57142857,17.1428571 C7.62465471,17.1428571 6.85714286,16.3753453 6.85714286,15.4285714 L6.85714286,8.57142857 C6.85714286,7.62465471 7.62465471,6.85714286 8.57142857,6.85714286 L15.4285714,6.85714286 Z M18.8571429,2 C20.5928949,2 22,3.40710507 22,5.14285714 L22,6.28571429 C22,6.75910121 21.6162441,7.14285714 21.1428571,7.14285714 C20.6694702,7.14285714 20.2857143,6.75910121 20.2857143,6.28571429 L20.2857143,5.14285714 C20.2857143,4.35387893 19.6461211,3.71428571 18.8571429,3.71428571 L17.7142857,3.71428571 C17.2408988,3.71428571 16.8571429,3.33052979 16.8571429,2.85714286 C16.8571429,2.38375593 17.2408988,2 17.7142857,2 L18.8571429,2 Z M6.25725446,2 C6.73064139,2 7.11439732,2.38375593 7.11439732,2.85714286 C7.11439732,3.33052979 6.73064139,3.71428571 6.25725446,3.71428571 L5.14285714,3.71428571 C4.35387893,3.71428571 3.71428571,4.35387893 3.71428571,5.14285714 L3.71428571,6.22516741 C3.71428571,6.69855434 3.33052979,7.08231027 2.85714286,7.08231027 C2.38375593,7.08231027 2,6.69855434 2,6.22516741 L2,5.14285714 C2,3.40710507 3.40710507,2 5.14285714,2 L6.25725446,2 Z" id="Combined-Shape"></path>
                    </g>
                </g>
            </g>
        </g>
    </g>
</svg>