<?xml version="1.0" encoding="UTF-8"?>
<svg width="19px" height="25px" viewBox="0 0 19 25" version="1.1" xmlns="http://www.w3.org/2000/svg" xmlns:xlink="http://www.w3.org/1999/xlink">
    <title>Shape@3x</title>
    <g id="Default-Views" stroke="none" stroke-width="1" fill="none" fill-rule="evenodd">
        <g id="Dashboard" transform="translate(-25.000000, -262.000000)" fill="#92929D" fill-rule="nonzero">
            <g id="Sidebar-Left" transform="translate(0.000000, 73.000000)">
                <g id="Grades" transform="translate(25.000000, 188.000000)">
                    <g id="Icon-&amp;-Text" transform="translate(0.000000, 0.500000)">
                        <g id="award-light" transform="translate(0.000000, 0.500000)">
                            <path d="M9.5,4.6851424 C6.88110183,4.6851424 4.75006189,6.78816107 4.75006189,9.37262306 C4.75006189,11.9570851 6.88110183,14.0601037 9.5,14.0601037 C12.1188982,14.0601037 14.2499381,11.9570851 14.2499381,9.37262306 C14.2499381,6.78816107 12.119393,4.6851424 9.5,4.6851424 Z M9.5,12.4976102 C7.75390296,12.4976102 6.33337459,11.0957605 6.33337459,9.37262306 C6.33337459,7.64948564 7.75390296,6.24763596 9.5,6.24763596 C11.246097,6.24763596 12.6666254,7.64948564 12.6666254,9.37262306 C12.6666254,11.0957605 11.246097,12.4976102 9.5,12.4976102 Z M18.1899128,13.2974116 C18.8855808,12.598684 19.1591971,11.572321 18.905867,10.6187117 C18.5896993,9.43707592 18.5896993,9.62018064 18.905867,8.43659177 C19.1596918,7.4834707 18.8855808,6.45759603 18.1899128,5.75789188 C17.3200804,4.89266108 17.4195322,5.04060969 17.1058384,3.87362231 C16.851024,2.91513017 16.0979609,2.16073875 15.1405515,1.90390388 C13.9877019,1.5953114 14.1203044,1.68027199 13.2727373,0.818947415 C12.5691527,0.114848757 11.5350516,-0.161517291 10.5746735,0.0953175874 C9.41192823,0.41318737 9.58015521,0.408304577 8.42384215,0.0953175874 C7.4713806,-0.163958687 6.43084728,0.114848757 5.7272627,0.820412252 C4.87128427,1.68320166 5.0241729,1.59042861 3.86093285,1.90390388 C2.90253388,2.16073875 2.14947078,2.91513017 1.8941616,3.87264575 C1.5794782,5.04646904 1.67744568,4.89168452 0.810087187,5.75838016 C0.114419168,6.45759603 -0.159197058,7.48395898 0.0946277594,8.43756833 C0.410795515,9.61773924 0.410795515,9.43463453 0.0946277594,10.6196882 C-0.159197058,11.5728093 0.114913953,12.598684 0.810581972,13.2983881 C1.68041439,14.1636189 1.58096256,14.0156703 1.89465639,15.1826577 C1.99410822,15.555703 2.18707445,15.8838267 2.42011829,16.1777708 L0.0594980088,21.9091924 C-0.153754421,22.4253036 0.233167621,22.9853599 0.791285349,22.9853599 C0.818498536,22.9853599 0.64730285,22.9912192 3.42948014,22.8862392 L5.22307656,24.7558604 C5.3823974,24.9218753 5.59020719,25 5.79603785,25 C6.10132033,25 6.40116017,24.8276374 6.53128868,24.5136739 L9.12643716,18.2134069 C9.36869891,18.1314628 9.63168618,18.131291 9.87405763,18.2129186 L12.4687113,24.5136739 C12.598345,24.8276374 12.8986797,25 13.2039622,25 C13.4097928,25 13.6176026,24.9218753 13.7769234,24.7558604 L15.5705199,22.8867275 C18.3526972,22.9917075 18.1815015,22.9858482 18.2087147,22.9858482 C18.7668324,22.9858482 19.1537544,22.4257919 18.940502,21.9096807 L16.5803765,16.1787473 C16.8134203,15.8848032 17.0063866,15.5566796 17.1058384,15.1841225 C17.4205218,14.0093227 17.3225543,14.1641072 18.1899128,13.2974116 L18.1899128,13.2974116 Z M5.52786426,22.800302 C4.41014445,21.6352678 4.70849993,21.9463017 4.08655491,21.2978668 C3.18109796,21.3320464 3.61898288,21.3154449 1.9881708,21.3774564 L3.74713225,17.1059896 C3.78622028,17.1186849 3.81986568,17.1426105 3.85994328,17.1533527 C4.94203856,17.4394843 4.87227384,17.3779611 5.42296979,17.9302049 C5.9147863,18.4253201 6.55058531,18.6904557 7.20221744,18.7358657 L5.52786426,22.800302 L5.52786426,22.800302 Z M17.012324,21.3769681 C15.3839858,21.3154449 15.8184073,21.3320464 14.9139399,21.2978668 C14.2924896,21.9458134 14.5903503,21.6352678 13.4726305,22.800302 L11.7953086,18.7280532 C12.4489199,18.6836198 13.0847189,18.4248318 13.577525,17.9297167 C14.1420749,17.3628245 14.0638989,17.4321601 15.1405515,17.1528644 C15.1806291,17.1421223 15.2142745,17.1181966 15.2533625,17.1059896 L17.012324,21.3769681 L17.012324,21.3769681 Z M15.5749729,14.7856867 C15.4636463,15.2046303 15.1375828,15.5342187 14.7229528,15.6455464 C13.5542701,15.9507209 13.3182575,15.9604865 12.4484251,16.8354829 C12.0525969,17.2314774 11.4494538,17.3047192 10.9764391,17.0054041 C10.0793935,16.4468126 8.92011172,16.4463244 8.02306612,17.0063806 C7.55302016,17.300813 6.94690827,17.2319656 6.55108009,16.8345063 C5.69114338,15.9712287 5.45661518,15.9580451 4.27655244,15.6450581 C3.86192242,15.5337305 3.53585896,15.204142 3.42453229,14.7847101 C3.0257354,13.2891108 3.05195902,13.3105951 1.93869227,12.2031778 C1.63242022,11.8950736 1.51169263,11.4404856 1.62499844,11.016171 C2.0282484,9.52838414 2.03072232,9.52789586 1.62499844,8.04010903 C1.51218741,7.61579437 1.63291501,7.16120641 1.93869227,6.85359049 C3.04800074,5.74519662 3.02425105,5.77644649 3.42453229,4.27010505 C3.53585896,3.85116147 3.86192242,3.52157298 4.27655244,3.41122188 C5.79999613,3.00057904 5.74507497,3.03036407 6.85586779,1.91611086 C7.1131561,1.65683458 7.53966096,1.47861266 8.00772778,1.60312387 C9.51484356,2.01230187 9.48466166,2.01327842 10.9902931,1.60312387 C11.3955222,1.49228448 11.8408289,1.61240117 12.1436374,1.91415774 C13.2465137,3.03085235 13.2257327,3.00985634 14.7244371,3.41122188 C15.137088,3.52206126 15.4636463,3.85164975 15.5749729,4.27108161 C15.9737698,5.76668091 15.9475462,5.74519662 17.0608129,6.85261393 C17.367085,7.16071813 17.4878126,7.6153061 17.3745068,8.03962075 C16.9692777,9.52984898 16.970762,9.53082554 17.3745068,11.0156827 C17.4873178,11.4399973 17.3665902,11.8945853 17.0608129,12.2022012 C15.9519993,13.3110834 15.9752542,13.2793452 15.5749729,14.7856867 L15.5749729,14.7856867 Z" id="Shape"></path>
                        </g>
                    </g>
                </g>
            </g>
        </g>
    </g>
</svg>