<?xml version="1.0" encoding="UTF-8"?>
<svg width="32px" height="32px" viewBox="0 0 32 32" version="1.1" xmlns="http://www.w3.org/2000/svg" xmlns:xlink="http://www.w3.org/1999/xlink">
    <title>Rounded_Initial_PP_32px@3x</title>
    <g id="Default-Views" stroke="none" stroke-width="1" fill="none" fill-rule="evenodd">
        <g id="Messages" transform="translate(-21.000000, -462.000000)">
            <g id="Sidebar-Left-Copy" transform="translate(0.000000, 73.000000)">
                <g id="Apps" transform="translate(21.000000, 350.000000)">
                    <g id="Rounded_Initial_PP_32px" transform="translate(0.000000, 39.000000)">
                        <rect id="Rectangle" fill="#FCF8F0" x="0" y="0" width="32" height="32" rx="10"></rect>
                        <g id="books-light" transform="translate(7.000000, 8.000000)" fill="#2D4168" fill-rule="nonzero">
                            <path d="M17.9790345,14.2634375 L12.4687306,0.250625 C12.4149807,0.096875 12.2690434,0 12.1140436,0 C12.0199813,0 11.9587314,0.0321875 11.7549817,0.1034375 C11.553107,0.1740625 11.4481072,0.3609375 11.5590445,0.6778125 C11.0446703,0.980625 9.71060987,1.430625 9.19967317,1.5034375 C9.15811073,1.3853125 9.13811076,1.2965625 8.99967348,1.215 L8.99967348,1 C8.99967348,0.4478125 8.55186168,0 7.99967504,0 L4.99967971,0 C4.81343,0 4.64905526,0.0646875 4.49968049,0.153125 C4.35061822,0.0646875 4.18624348,0 4,0 L1,0 C0.447811802,0 0,0.4478125 0,1 L0,15 C0,15.5521875 0.447811802,16 1,16 L4,16 C4.18624348,16 4.35061822,15.9353125 4.5,15.846875 C4.64936776,15.935625 4.8137425,16 5,16 L7.99998754,16 C8.55217418,16 8.99998598,15.5521875 8.99998598,15 L8.99998598,3.715 L13.7321661,15.749375 C13.7862285,15.903125 13.9321658,16 14.0868531,16 C14.1806029,16 14.2418528,15.9678125 14.445915,15.8965625 C14.6471647,15.82625 14.753102,15.639375 14.6418522,15.3221875 C15.1562264,15.019375 16.4902868,14.569375 17.0012235,14.4965625 C17.1152858,14.8215625 17.3177855,14.891875 17.5130977,14.8234375 L17.7490349,14.7409375 C17.943722,14.6725 18.0471594,14.4575 17.9790345,14.2634375 L17.9790345,14.2634375 Z M3.99999844,15 L0.999998442,15 L0.999998442,13 L3.99999844,13 L3.99999844,15 Z M3.99999844,12 L0.999998442,12 L0.999998442,4 L3.99999844,4 L3.99999844,12 Z M3.99999844,3 L0.999998442,3 L0.999998442,1 L3.99999844,1 L3.99999844,3 Z M7.99999221,15 L4.99999221,15 L4.99999221,13 L7.99999221,13 L7.99999221,15 Z M7.99999221,12 L4.99999221,12 L4.99999221,4 L7.99999221,4 L7.99999221,12 Z M7.99999221,3 L4.99999221,3 L4.99999221,1 L7.99999221,1 L7.99999221,3 Z M14.3484151,14.485625 L9.49342271,2.34 C10.2815465,2.191875 11.4937321,1.7046875 11.852794,1.514375 L16.7077865,13.6596875 C15.9193502,13.808125 14.7074771,14.295 14.3484151,14.485625 L14.3484151,14.485625 Z" id="Shape"></path>
                        </g>
                    </g>
                </g>
            </g>
        </g>
    </g>
</svg>