<?xml version="1.0" encoding="UTF-8"?>
<svg width="20px" height="19px" viewBox="0 0 20 19" version="1.1" xmlns="http://www.w3.org/2000/svg" xmlns:xlink="http://www.w3.org/1999/xlink">
    <title>Path@3x</title>
    <g id="Default-Views" stroke="none" stroke-width="1" fill="none" fill-rule="evenodd">
        <g id="Dashboard" transform="translate(-24.000000, -309.000000)" fill="#92929D">
            <g id="Sidebar-Left" transform="translate(0.000000, 73.000000)">
                <g id="Messages" transform="translate(22.000000, 233.000000)">
                    <g id="Icon-&amp;-Text" transform="translate(0.000000, 0.500000)">
                        <g id="iconspace_Chat-3_25px" transform="translate(2.000000, 2.880000)">
                            <path d="M10.5139395,14.6727338 L6.06545155,17.9374426 C5.05870104,18.6762885 3.61004168,17.9861174 3.60795568,16.7713189 L3.60413773,14.5479042 C1.53288019,14.0697568 0,12.2743812 0,10.141481 L0,4.53125288 C0,2.02952959 2.10603901,0 4.70588235,0 L15.2941176,0 C17.893961,0 20,2.02952959 20,4.53125288 L20,10.141481 C20,12.6432043 17.893961,14.6727338 15.2941176,14.6727338 L10.5139395,14.6727338 Z M5.60638935,15.8575722 L9.56815664,12.9500637 C9.74255213,12.8220763 9.955971,12.7527338 10.1754888,12.7527338 L15.2941176,12.7527338 C16.7876789,12.7527338 18,11.5844547 18,10.141481 L18,4.53125288 C18,3.08827917 16.7876789,1.92 15.2941176,1.92 L4.70588235,1.92 C3.21232108,1.92 2,3.08827917 2,4.53125288 L2,10.141481 C2,11.5572946 3.1690612,12.7132478 4.6301335,12.7517376 C5.17089106,12.7659831 5.60180952,13.1904719 5.60270128,13.7097938 L5.60638935,15.8575722 Z" id="Path"></path>
                        </g>
                    </g>
                </g>
            </g>
        </g>
    </g>
</svg>