<?xml version="1.0" encoding="UTF-8"?>
<svg width="20px" height="20px" viewBox="0 0 20 20" version="1.1" xmlns="http://www.w3.org/2000/svg" xmlns:xlink="http://www.w3.org/1999/xlink">
    <title>Combined Shape@3x</title>
    <g id="Default-Views" stroke="none" stroke-width="1" fill="none" fill-rule="evenodd">
        <g id="Courses" transform="translate(-1377.000000, -575.000000)" fill="#FFFFFF">
            <g id="Live-Courses" transform="translate(669.000000, 117.000000)">
                <g id="iconspace_Scale-2_25px" transform="translate(706.000000, 456.000000)">
                    <path d="M18.6666667,2 C20.5076158,2 22,3.49238417 22,5.33333333 L22,18.6666667 C22,20.5076158 20.5076158,22 18.6666667,22 L5.33333333,22 C3.49238417,22 2,20.5076158 2,18.6666667 L2,5.33333333 C2,3.49238417 3.49238417,2 5.33333333,2 L18.6666667,2 Z M18.6666667,2.95238095 L5.33333333,2.95238095 C4.01836964,2.95238095 2.95238095,4.01836964 2.95238095,5.33333333 L2.95238095,18.6666667 C2.95238095,19.9816304 4.01836964,21.047619 5.33333333,21.047619 L13.428,21.047 L13.4285714,15.4285714 C13.4285714,14.3742096 14.2444492,13.5104063 15.2793091,13.4340572 L15.4285714,13.4285714 L21.047,13.428 L21.047619,5.33333333 C21.047619,4.01836964 19.9816304,2.95238095 18.6666667,2.95238095 Z M21.047,14.38 L15.4285714,14.3809524 C14.8885597,14.3809524 14.4439773,14.789534 14.3870997,15.3144218 L14.3809524,15.4285714 L14.38,21.047 L18.6666667,21.047619 C19.9816304,21.047619 21.047619,19.9816304 21.047619,18.6666667 L21.047,14.38 Z M4.99661582,4.99661582 C5.18257977,4.81065187 5.4840869,4.81065187 5.67005085,4.99661582 L5.67005085,4.99661582 L11.5238095,10.8503745 L11.5238095,8.19047619 C11.5238095,7.92748345 11.7370073,7.71428571 12,7.71428571 C12.2629927,7.71428571 12.4761905,7.92748345 12.4761905,8.19047619 L12.4761905,8.19047619 L12.4761905,12.0095432 C12.4723143,12.2692382 12.2606045,12.4785814 12,12.4785814 L12,12.4785814 L8.18808523,12.4785814 C7.9250925,12.4785814 7.71189476,12.2653837 7.71189476,12.002391 C7.71189476,11.7393982 7.9250925,11.5262005 8.18808523,11.5262005 L8.18808523,11.5262005 L10.8527655,11.5262005 L4.99661582,5.67005085 C4.81065187,5.4840869 4.81065187,5.18257977 4.99661582,4.99661582 Z" id="Combined-Shape"></path>
                </g>
            </g>
        </g>
    </g>
</svg>