<?xml version="1.0" encoding="UTF-8"?>
<svg width="22px" height="25px" viewBox="0 0 22 25" version="1.1" xmlns="http://www.w3.org/2000/svg" xmlns:xlink="http://www.w3.org/1999/xlink">
    <title>Shape@3x</title>
    <g id="Default-Views" stroke="none" stroke-width="1" fill="none" fill-rule="evenodd">
        <g id="Dashboard" transform="translate(-1346.000000, -24.000000)" fill="#FFFFFF" fill-rule="nonzero">
            <g id="Toolbar-6" transform="translate(-0.208783, 0.474901)">
                <g id="bell-regular" transform="translate(1346.208783, 23.525099)">
                    <path d="M21.5771231,17.6899414 C20.6283789,16.6762695 18.8531665,15.1513672 18.8531665,10.15625 C18.8531665,6.36230469 16.1778256,3.32519531 12.5704369,2.58007813 L12.5704369,1.5625 C12.5704369,0.699707031 11.8672269,0 11,0 C10.1327731,0 9.42956313,0.699707031 9.42956313,1.5625 L9.42956313,2.58007812 C5.82217439,3.32519531 3.14683353,6.36230469 3.14683353,10.15625 C3.14683353,15.1513672 1.37162113,16.6762695 0.422876905,17.6899414 C0.128235842,18.0048828 -0.00238836217,18.3813477 3.30281373e-05,18.75 C0.00546873285,19.5507812 0.637473813,20.3125 1.57639667,20.3125 L20.4236033,20.3125 C21.3625262,20.3125 21.9950223,19.5507812 21.999967,18.75 C22.0023884,18.3813477 21.8717642,18.0043945 21.5771231,17.6899414 L21.5771231,17.6899414 Z M3.31625214,17.96875 C4.35829937,16.6030273 5.49757815,14.3393555 5.5029799,10.1845703 C5.5029799,10.1748047 5.50003349,10.1660156 5.50003349,10.15625 C5.50003349,7.13574219 7.96225064,4.6875 11,4.6875 C14.0377494,4.6875 16.4999665,7.13574219 16.4999665,10.15625 C16.4999665,10.1660156 16.4970201,10.1748047 16.4970201,10.1845703 C16.5024219,14.3398438 17.6417006,16.6035156 18.6837479,17.96875 L3.31625214,17.96875 Z M11,25 C12.7344537,25 14.1413648,23.6010742 14.1413648,21.875 L7.8586352,21.875 C7.8586352,23.6010742 9.26554628,25 11,25 Z" id="Shape"></path>
                </g>
            </g>
        </g>
    </g>
</svg>