<?xml version="1.0" encoding="UTF-8"?>
<svg width="16px" height="18px" viewBox="0 0 16 18" version="1.1" xmlns="http://www.w3.org/2000/svg" xmlns:xlink="http://www.w3.org/1999/xlink">
    <title>Shape@3x</title>
    <g id="Default-Views" stroke="none" stroke-width="1" fill="none" fill-rule="evenodd">
        <g id="Messages" transform="translate(-1394.000000, -974.000000)" fill="#B5B5BE">
            <g id="Attachment-Icon" transform="translate(1394.000000, 974.000000)">
                <path d="M1.71391322,7.7944622 L8.23917147,1.26920395 C9.9314434,-0.423067983 12.6751583,-0.423067983 14.3674302,1.26920395 C16.0597022,2.96147588 16.0597022,5.70519079 14.3674302,7.39746272 L7.84217199,13.922721 C6.79725954,14.9204705 5.14125907,14.906152 4.11438192,13.8792749 C3.07298381,12.8378768 3.07298381,11.1494368 4.11438192,10.1080387 L10.5961941,3.62622655 C10.9867184,3.23570226 11.6198833,3.23570226 12.0104076,3.62622655 C12.4009319,4.01675084 12.4009319,4.64991582 12.0104076,5.04044011 L5.52859548,11.5222523 C5.26824595,11.7826018 5.26824595,12.2047118 5.52859548,12.4650613 C5.788945,12.7254108 6.21105497,12.7254108 6.4714045,12.4650613 L12.9532167,5.98324916 C13.86444,5.07202581 13.86444,3.59464086 12.9532167,2.68341751 C12.0419933,1.77219416 10.5646084,1.77219416 9.65338504,2.68341751 L3.17157288,9.16522967 C1.60947571,10.7273268 1.60947571,13.2599868 3.17157288,14.8220839 C4.73367004,16.3841811 7.26632996,16.3841811 8.82842712,14.8220839 L14.131728,9.51878306 C14.5222523,9.12825877 15.1554173,9.12825877 15.5459415,9.51878306 C15.9364658,9.90930735 15.9364658,10.5424723 15.5459415,10.9329966 L10.2426407,16.2362975 C7.89949494,18.5794432 4.10050506,18.5794432 1.75735931,16.2362975 C-0.571287303,13.9076509 -0.585696719,10.1411216 1.71413107,7.79468005 L1.71391322,7.7944622 Z" id="Shape"></path>
            </g>
        </g>
    </g>
</svg>