<?xml version="1.0" encoding="UTF-8"?>
<svg width="22px" height="19px" viewBox="0 0 22 19" version="1.1" xmlns="http://www.w3.org/2000/svg" xmlns:xlink="http://www.w3.org/1999/xlink">
    <title>Shape@3x</title>
    <g id="Default-Views" stroke="none" stroke-width="1" fill="none" fill-rule="evenodd">
        <g id="Dashboard" transform="translate(-25.000000, -353.000000)" fill="#92929D" fill-rule="nonzero">
            <g id="Sidebar-Left" transform="translate(0.000000, 73.000000)">
                <g id="Projects" transform="translate(25.000000, 278.000000)">
                    <g id="Icon-&amp;-Text" transform="translate(0.000000, 0.500000)">
                        <g id="tasks-alt-regular" transform="translate(0.000000, 1.500000)">
                            <path d="M20.96875,0 L1.03125,0 C0.459765625,0 0,0.508928571 0,1.14508929 L0,4.28348214 C0,4.91964286 0.459765625,5.42857143 1.03125,5.42857143 L20.96875,5.42857143 C21.5402344,5.42857143 22,4.91964286 22,4.28348214 L22,1.14508929 C22,0.508928571 21.5402344,0 20.96875,0 Z M13.0625,3.39285714 L2.0625,3.39285714 L2.0625,2.03571429 L13.0625,2.03571429 L13.0625,3.39285714 Z M19.9375,3.39285714 L15.125,3.39285714 L15.125,2.03571429 L19.9375,2.03571429 L19.9375,3.39285714 Z M20.96875,13.5714286 L1.03125,13.5714286 C0.459765625,13.5714286 0,14.0803571 0,14.7165179 L0,17.8549107 C0,18.4910714 0.459765625,19 1.03125,19 L20.96875,19 C21.5402344,19 22,18.4910714 22,17.8549107 L22,14.7165179 C22,14.0803571 21.5402344,13.5714286 20.96875,13.5714286 Z M10.3125,16.9642857 L2.0625,16.9642857 L2.0625,15.6071429 L10.3125,15.6071429 L10.3125,16.9642857 Z M19.9375,16.9642857 L12.375,16.9642857 L12.375,15.6071429 L19.9375,15.6071429 L19.9375,16.9642857 Z M20.96875,6.78571429 L1.03125,6.78571429 C0.459765625,6.78571429 0,7.29464286 0,7.93080357 L0,11.0691964 C0,11.7053571 0.459765625,12.2142857 1.03125,12.2142857 L20.96875,12.2142857 C21.5402344,12.2142857 22,11.7053571 22,11.0691964 L22,7.93080357 C22,7.29464286 21.5402344,6.78571429 20.96875,6.78571429 Z M4.8125,10.1785714 L2.0625,10.1785714 L2.0625,8.82142857 L4.8125,8.82142857 L4.8125,10.1785714 Z M19.9375,10.1785714 L6.875,10.1785714 L6.875,8.82142857 L19.9375,8.82142857 L19.9375,10.1785714 Z" id="Shape"></path>
                        </g>
                    </g>
                </g>
            </g>
        </g>
    </g>
</svg>