<?xml version="1.0" encoding="UTF-8"?>
<svg width="19px" height="17px" viewBox="0 0 19 17" version="1.1" xmlns="http://www.w3.org/2000/svg" xmlns:xlink="http://www.w3.org/1999/xlink">
    <title>Shape@3x</title>
    <g id="Default-Views" stroke="none" stroke-width="1" fill="none" fill-rule="evenodd">
        <g id="Grades" transform="translate(-291.000000, -116.000000)" fill="#000000" fill-rule="nonzero">
            <g id="bars" transform="translate(291.000000, 116.000000)">
                <path d="M0.678571429,3.12244898 L18.3214286,3.12244898 C18.6962121,3.12244898 19,2.81180867 19,2.42857143 L19,0.693877551 C19,0.310640306 18.6962121,0 18.3214286,0 L0.678571429,0 C0.303787946,0 0,0.310640306 0,0.693877551 L0,2.42857143 C0,2.81180867 0.303787946,3.12244898 0.678571429,3.12244898 Z M0.678571429,10.0612245 L18.3214286,10.0612245 C18.6962121,10.0612245 19,9.75058418 19,9.36734694 L19,7.63265306 C19,7.24941582 18.6962121,6.93877551 18.3214286,6.93877551 L0.678571429,6.93877551 C0.303787946,6.93877551 0,7.24941582 0,7.63265306 L0,9.36734694 C0,9.75058418 0.303787946,10.0612245 0.678571429,10.0612245 Z M0.678571429,17 L18.3214286,17 C18.6962121,17 19,16.6893597 19,16.3061224 L19,14.5714286 C19,14.1881913 18.6962121,13.877551 18.3214286,13.877551 L0.678571429,13.877551 C0.303787946,13.877551 0,14.1881913 0,14.5714286 L0,16.3061224 C0,16.6893597 0.303787946,17 0.678571429,17 Z" id="Shape"></path>
            </g>
        </g>
    </g>
</svg>