<?xml version="1.0" encoding="UTF-8"?>
<svg width="19px" height="25px" viewBox="0 0 19 25" version="1.1" xmlns="http://www.w3.org/2000/svg" xmlns:xlink="http://www.w3.org/1999/xlink">
    <title>Shape@3x</title>
    <g id="Default-Views" stroke="none" stroke-width="1" fill="none" fill-rule="evenodd">
        <g id="Grades" transform="translate(-1273.000000, -24.000000)" fill="#FFFFFF" fill-rule="nonzero">
            <g id="Toolbar-Copy" transform="translate(-1.208783, 0.474901)">
                <g id="clipboard-list-check-regular" transform="translate(1274.208783, 23.525099)">
                    <path d="M6.24427083,13.984375 L9.42083333,10.8789062 C9.52473958,10.7763672 9.52473958,10.6103516 9.42083333,10.5078125 L8.79739583,9.88769531 C8.69348958,9.78515625 8.52526042,9.78515625 8.42135417,9.88769531 L6.06614583,12.1923828 L5.046875,11.171875 C4.94296875,11.0693359 4.77473958,11.0693359 4.67083333,11.171875 L4.04244792,11.7871094 C3.93854167,11.8896484 3.93854167,12.0556641 4.04244792,12.1582031 L5.878125,13.984375 C5.97213542,14.0869141 6.14036458,14.0869141 6.24427083,13.984375 L6.24427083,13.984375 Z M16.625,3.125 L12.6666667,3.125 C12.6666667,1.40136719 11.2466146,0 9.5,0 C7.75338542,0 6.33333333,1.40136719 6.33333333,3.125 L2.375,3.125 C1.06380208,3.125 0,4.17480469 0,5.46875 L0,22.65625 C0,23.9501953 1.06380208,25 2.375,25 L16.625,25 C17.9361979,25 19,23.9501953 19,22.65625 L19,5.46875 C19,4.17480469 17.9361979,3.125 16.625,3.125 Z M9.5,2.34375 C9.93541667,2.34375 10.2916667,2.6953125 10.2916667,3.125 C10.2916667,3.5546875 9.93541667,3.90625 9.5,3.90625 C9.06458333,3.90625 8.70833333,3.5546875 8.70833333,3.125 C8.70833333,2.6953125 9.06458333,2.34375 9.5,2.34375 Z M16.625,22.265625 C16.625,22.4804688 16.446875,22.65625 16.2291667,22.65625 L2.77083333,22.65625 C2.553125,22.65625 2.375,22.4804688 2.375,22.265625 L2.375,5.859375 C2.375,5.64453125 2.553125,5.46875 2.77083333,5.46875 L4.75,5.46875 L4.75,7.03125 C4.75,7.4609375 5.10625,7.8125 5.54166667,7.8125 L13.4583333,7.8125 C13.89375,7.8125 14.25,7.4609375 14.25,7.03125 L14.25,5.46875 L16.2291667,5.46875 C16.446875,5.46875 16.625,5.64453125 16.625,5.859375 L16.625,22.265625 Z M5.54166667,16.015625 C4.88359375,16.015625 4.35416667,16.5380859 4.35416667,17.1875 C4.35416667,17.8369141 4.88359375,18.359375 5.54166667,18.359375 C6.19973958,18.359375 6.72916667,17.8369141 6.72916667,17.1875 C6.72916667,16.5380859 6.19973958,16.015625 5.54166667,16.015625 Z M13.8541667,11.71875 L10.7221354,11.71875 C10.6578125,11.8066406 10.6182292,11.9091797 10.5390625,11.9873047 L9.21302083,13.28125 L13.8541667,13.28125 C14.071875,13.28125 14.25,13.1054687 14.25,12.890625 L14.25,12.109375 C14.25,11.8945312 14.071875,11.71875 13.8541667,11.71875 Z M13.8541667,16.40625 L8.3125,16.40625 C8.09479167,16.40625 7.91666667,16.5820312 7.91666667,16.796875 L7.91666667,17.578125 C7.91666667,17.7929688 8.09479167,17.96875 8.3125,17.96875 L13.8541667,17.96875 C14.071875,17.96875 14.25,17.7929688 14.25,17.578125 L14.25,16.796875 C14.25,16.5820312 14.071875,16.40625 13.8541667,16.40625 Z" id="Shape"></path>
                </g>
            </g>
        </g>
    </g>
</svg>