<?xml version="1.0" encoding="UTF-8"?>
<svg width="32px" height="32px" viewBox="0 0 32 32" version="1.1" xmlns="http://www.w3.org/2000/svg" xmlns:xlink="http://www.w3.org/1999/xlink">
    <title>Rounded_Initial_PP_32px@3x</title>
    <g id="Default-Views" stroke="none" stroke-width="1" fill="none" fill-rule="evenodd">
        <g id="Messages" transform="translate(-21.000000, -566.000000)">
            <g id="Sidebar-Left-Copy" transform="translate(0.000000, 73.000000)">
                <g id="Apps" transform="translate(21.000000, 350.000000)">
                    <g id="Rounded_Initial_PP_32px" transform="translate(0.000000, 143.000000)">
                        <rect id="Rectangle" fill="#0D1C37" x="0" y="0" width="32" height="32" rx="10"></rect>
                        <g id="wikipedia" transform="translate(3.000000, 10.000000)" fill="#FFFFFF">
                            <path d="M25,0.268888889 C25,0.36 24.971416,0.442222222 24.9164468,0.517777778 C24.8592788,0.591111111 24.799912,0.628888889 24.7317502,0.628888889 C24.1842568,0.682222222 23.7335092,0.86 23.3861038,1.16444444 C23.0364996,1.46666667 22.6781003,2.04666667 22.3065084,2.9 L16.6336851,15.82 C16.5963061,15.94 16.4929639,16 16.32146,16 C16.1873351,16 16.083993,15.94 16.0092348,15.82 L12.8276165,9.09555556 L9.16886544,15.82 C9.0941073,15.94 8.99076517,16 8.85664028,16 C8.6939314,16 8.58619173,15.94 8.53342128,15.82 L2.95954266,2.9 C2.6121372,2.09777778 2.24494283,1.53777778 1.85795954,1.22 C1.47317502,0.902222222 0.934476693,0.704444444 0.246262093,0.628888889 C0.186895339,0.628888889 0.129727353,0.597777778 0.0791556728,0.533333333 C0.0263852243,0.471111111 0,0.397777778 0,0.315555556 C0,0.104444444 0.0593667546,0 0.178100264,0 C0.675021988,0 1.1939314,0.0222222222 1.73702726,0.0666666667 C2.24054529,0.113333333 2.71547933,0.135555556 3.15963061,0.135555556 C3.61257696,0.135555556 4.14687775,0.113333333 4.76253298,0.0666666667 C5.40677221,0.0222222222 5.97845207,0 6.47537379,0 C6.5941073,0 6.65347405,0.104444444 6.65347405,0.315555556 C6.65347405,0.524444444 6.61609499,0.628888889 6.54353562,0.628888889 C6.0466139,0.666666667 5.65523307,0.795555556 5.36939314,1.01111111 C5.08355321,1.22888889 4.94063325,1.51333333 4.94063325,1.86666667 C4.94063325,2.04666667 5,2.27111111 5.11873351,2.54 L9.72515391,13.0533333 L12.3394899,8.06222222 L9.90325418,2.9 C9.46569921,1.98 9.10510114,1.38444444 8.82365875,1.11777778 C8.54221636,0.853333333 8.11565523,0.688888889 7.54397537,0.628888889 C7.49120493,0.628888889 7.44283201,0.597777778 7.3944591,0.533333333 C7.34608619,0.471111111 7.32189974,0.397777778 7.32189974,0.315555556 C7.32189974,0.104444444 7.37247142,0 7.47801231,0 C7.97493404,0 8.43007916,0.0222222222 8.84564644,0.0666666667 C9.24582234,0.113333333 9.67238347,0.135555556 10.1253298,0.135555556 C10.5694811,0.135555556 11.0400176,0.113333333 11.5369393,0.0666666667 C12.0492524,0.0222222222 12.5527704,0 13.0496922,0 C13.1684257,0 13.2277924,0.104444444 13.2277924,0.315555556 C13.2277924,0.524444444 13.1926121,0.628888889 13.117854,0.628888889 C12.1240106,0.697777778 11.6270888,0.982222222 11.6270888,1.48444444 C11.6270888,1.70888889 11.7414248,2.05777778 11.9722955,2.52888889 L13.583993,5.83555556 L15.1868953,2.81111111 C15.408971,2.38444444 15.5211082,2.02444444 15.5211082,1.73111111 C15.5211082,1.04222222 15.0241865,0.675555556 14.030343,0.628888889 C13.9401935,0.628888889 13.8962181,0.524444444 13.8962181,0.315555556 C13.8962181,0.24 13.9182058,0.168888889 13.9621812,0.102222222 C14.0083553,0.0333333333 14.0523307,0 14.0963061,0 C14.4525066,0 14.8900616,0.0222222222 15.408971,0.0666666667 C15.9058927,0.113333333 16.3148637,0.135555556 16.6336851,0.135555556 C16.8623571,0.135555556 17.2009675,0.115555556 17.6451187,0.0777777778 C18.2080035,0.0266666667 18.6807388,0 19.058927,0 C19.1468777,0 19.1908531,0.0888888889 19.1908531,0.268888889 C19.1908531,0.508888889 19.1094987,0.628888889 18.9467898,0.628888889 C18.3685136,0.688888889 17.9023747,0.851111111 17.5505717,1.11333333 C17.1987687,1.37555556 16.759015,1.97111111 16.2335092,2.9 L14.0963061,6.89333333 L16.9898857,12.8511111 L21.2620932,2.81111111 C21.4094107,2.44444444 21.4841689,2.10666667 21.4841689,1.8 C21.4841689,1.06444444 20.9872471,0.675555556 19.9934037,0.628888889 C19.9032542,0.628888889 19.8592788,0.524444444 19.8592788,0.315555556 C19.8592788,0.104444444 19.9252419,0 20.0593668,0 C20.4221636,0 20.8531223,0.0222222222 21.350044,0.0666666667 C21.8095866,0.113333333 22.1965699,0.135555556 22.5065963,0.135555556 C22.8342128,0.135555556 23.2124011,0.113333333 23.6411609,0.0666666667 C24.087511,0.0222222222 24.4876869,0 24.8438874,0 C24.9472296,0 25,0.0888888889 25,0.268888889 Z" id="Path"></path>
                        </g>
                    </g>
                </g>
            </g>
        </g>
    </g>
</svg>