<?xml version="1.0" encoding="UTF-8"?>
<svg width="32px" height="32px" viewBox="0 0 32 32" version="1.1" xmlns="http://www.w3.org/2000/svg" xmlns:xlink="http://www.w3.org/1999/xlink">
    <title>Rounded_Initial_PP_32px@3x</title>
    <g id="Default-Views" stroke="none" stroke-width="1" fill="none" fill-rule="evenodd">
        <g id="Messages" transform="translate(-21.000000, -618.000000)">
            <g id="Sidebar-Left-Copy" transform="translate(0.000000, 73.000000)">
                <g id="Apps" transform="translate(21.000000, 350.000000)">
                    <g id="Rounded_Initial_PP_32px" transform="translate(0.000000, 195.000000)">
                        <rect id="Rectangle" fill-opacity="0.724522304" fill="#FF7E00" x="0" y="0" width="32" height="32" rx="10"></rect>
                        <g id="file_type_wolfram_icon_130071" transform="translate(7.000000, 7.000000)" fill-rule="nonzero">
                            <polygon id="Path" fill="#DD1100" points="17.7333333 12.4362815 15.162 9.5 17.7333333 6.5637185 13.9662667 5.72865294 14.3431 1.81339583 10.8116333 3.39705183 8.86223333 0 6.9217 3.39705183 3.39023333 1.81339583 3.76706667 5.72865294 0 6.5637185 2.5707 9.5 0 12.4362815 3.76706667 13.2713471 3.39023333 17.1866042 6.9217 15.6029482 8.8711 19 10.811 15.6029482 14.3519667 17.1866042 13.9656333 13.2713471"></polygon>
                            <path d="M10.933989,6.51294065 C10.2881272,6.88687392 9.56177221,7.0796254 8.82472815,7.07267135 C8.12512279,7.10812416 7.43249251,6.91241964 6.8437498,6.51294065 C6.96413835,7.23908217 6.91739834,7.98503084 6.70744961,8.68822816 C6.50001838,9.42139555 6.09923541,10.0775361 5.55167332,10.5804036 C6.24418847,10.6797361 6.90607598,10.9440049 7.48701269,11.3531177 C8.04122595,11.8492675 8.50443654,12.4480994 8.85371506,13.1199706 C9.17151689,12.4457343 9.62157536,11.8501632 10.1741617,11.3725979 C10.775005,10.954703 11.4591726,10.6880795 12.1736424,10.5933904 C11.6929639,10.0182744 11.2916326,9.37473276 10.9814782,8.68173476 C10.7924426,7.97454734 10.7761078,7.22854856 10.933989,6.51294065 L10.933989,6.51294065 Z M9.76217743,10.7615694 C9.39481168,11.0449587 9.08857042,11.4069975 8.86358295,11.8238889 C8.61714881,11.4178732 8.30386517,11.0614244 7.93846853,10.7713094 C7.57833659,10.502519 7.16929914,10.3150465 6.73705327,10.2206695 C7.03439042,9.83016442 7.26688875,9.38954868 7.42472165,8.91744502 C7.54327117,8.47832049 7.58978321,8.02111768 7.56225533,7.56552007 C7.97162785,7.7378545 8.40581388,7.83578042 8.84631415,7.85512551 C9.30555132,7.83623599 9.75836258,7.73500209 10.1852631,7.55577998 C10.0929561,8.01947926 10.1086148,8.49981153 10.2309021,8.95575605 C10.4170995,9.41773211 10.6777024,9.84236767 11.001214,10.2109294 C10.5628749,10.3253252 10.1441989,10.5111115 9.7603272,10.7615694 L9.76217743,10.7615694 Z M12.375934,8.15447104 C12.1557568,7.39149707 12.7792839,3.8 12.7792839,3.8 C12.7792839,3.8 10.4387444,5.47010133 8.79697471,5.47010133 C7.15520499,5.47010133 4.95466615,3.8 4.95466615,3.8 C4.95466615,3.8 5.67933911,6.40709831 5.23898465,8.07719964 C4.79863018,9.74730097 2.53333333,11.6303857 2.53333333,11.6303857 C2.53333333,11.6303857 5.48629857,11.8141488 6.60383679,12.604395 C7.72137501,13.3946412 8.85988249,16.4666667 8.85988249,16.4666667 C8.85988249,16.4666667 10.3733697,13.090101 11.006148,12.604395 C11.6389262,12.118689 15.2,11.6303857 15.2,11.6303857 C15.2,11.6303857 12.5954945,8.91744502 12.3753173,8.15447104 L12.375934,8.15447104 Z M10.6243841,12.0264828 C9.81737501,12.7465549 9.21185945,13.6844258 8.8728341,14.7394235 C8.8728341,14.7394235 8.00137631,12.6927052 7.03864057,11.9972625 C6.07590483,11.3018199 4.11712922,11.1187061 4.11712922,11.1187061 C4.11712922,11.1187061 5.63061642,9.70898994 5.99696173,8.45641394 C6.19041616,7.39184231 6.16940476,6.29636543 5.93528743,5.24088447 C6.8096153,5.81115883 7.79299143,6.17061544 8.81486026,6.29346388 C10.0711656,6.29346388 11.8048301,5.24088447 11.8048301,5.24088447 C11.8048301,5.24088447 11.3003343,7.21033133 11.7036842,8.43693375 C12.1070341,9.66353617 13.6205213,11.1213035 13.6205213,11.1213035 C12.5657746,11.1639431 11.5366872,11.4759276 10.6219171,12.0303788 L10.6243841,12.0264828 Z" id="Shape" fill="#FFFFFF"></path>
                        </g>
                    </g>
                </g>
            </g>
        </g>
    </g>
</svg>